<?xml version="1.0" encoding="UTF-8" standalone="no"?>
<!-- Created with Inkscape (http://www.inkscape.org/) -->

<svg
   xmlns:dc="http://purl.org/dc/elements/1.1/"
   xmlns:cc="http://creativecommons.org/ns#"
   xmlns:rdf="http://www.w3.org/1999/02/22-rdf-syntax-ns#"
   xmlns:svg="http://www.w3.org/2000/svg"
   xmlns="http://www.w3.org/2000/svg"
   xmlns:sodipodi="http://sodipodi.sourceforge.net/DTD/sodipodi-0.dtd"
   xmlns:inkscape="http://www.inkscape.org/namespaces/inkscape"
   width="160mm"
   height="297mm"
   viewBox="0 0 160 297"
   version="1.1"
   id="svg2138"
   inkscape:version="0.92.3 (2405546, 2018-03-11)"
   sodipodi:docname="stick-figure3.svg">
  <defs
     id="defs2132" />
  <sodipodi:namedview
     id="base"
     pagecolor="#ffffff"
     bordercolor="#666666"
     borderopacity="1.0"
     inkscape:pageopacity="0.0"
     inkscape:pageshadow="2"
     inkscape:zoom="0.98994949"
     inkscape:cx="-112.45676"
     inkscape:cy="697.68064"
     inkscape:document-units="mm"
     inkscape:current-layer="layer3"
     showgrid="false"
     inkscape:pagecheckerboard="true"
     inkscape:window-width="1290"
     inkscape:window-height="736"
     inkscape:window-x="161"
     inkscape:window-y="125"
     inkscape:window-maximized="0" />
  <metadata
     id="metadata2135">
    <rdf:RDF>
      <cc:Work
         rdf:about="">
        <dc:format>image/svg+xml</dc:format>
        <dc:type
           rdf:resource="http://purl.org/dc/dcmitype/StillImage" />
        <dc:title></dc:title>
      </cc:Work>
    </rdf:RDF>
  </metadata>
  <g
     inkscape:label="Layer 1"
     inkscape:groupmode="layer"
     id="layer1"
     style="display:inline">
    <path
       style="fill:none;stroke:#873d48;stroke-width:6.76499987;stroke-linecap:butt;stroke-linejoin:miter;stroke-miterlimit:4;stroke-dasharray:none;stroke-opacity:1"
       d="m 95.400835,35.297277 c -2.49245,-1.967481 -5.65898,-2.595753 -9.33523,-2.672697 -5.465581,0.196943 -11.005925,-0.475622 -16.397357,0.495772 -5.212531,2.56706 -10.598867,4.894559 -15.261567,8.475536 -3.964937,3.341689 -9.733143,7.292982 -9.24005,13.07905 -0.144661,3.276757 -0.810483,6.501373 -0.547007,9.818195 -0.142577,2.977386 -0.05405,5.917823 1.217685,8.667693 2.080557,4.533598 3.020439,9.329385 5.718095,13.461871 2.825882,4.392304 6.830077,8.382927 12.007622,9.80479 5.539105,1.715084 11.362299,2.138715 17.140914,1.945397 4.720785,0 9.441575,0 14.162355,0 3.65556,-1.21088 6.835535,-5.257154 9.658325,-6.974315 3.52429,-2.929921 4.87441,-7.084654 5.84331,-11.200014 -0.003,-8.195782 0.004,-16.396528 0,-24.588795 -0.88956,-4.392157 -3.69442,-7.91886 -6.1472,-11.49259 -1.51915,-2.719407 -3.78741,-4.883114 -6.093175,-7.162249 -0.64258,-0.947845 -1.60561,-1.485281 -2.72672,-1.657644 z"
       id="path6395"
       inkscape:connector-curvature="0" />
    <path
       style="fill:none;stroke:#873d48;stroke-width:8.46500015;stroke-linecap:round;stroke-linejoin:miter;stroke-miterlimit:4;stroke-dasharray:none;stroke-opacity:1"
       d="m 79.631931,101.84739 c 1.077081,4.13213 -0.396494,4.97743 -0.26759,9.20185 0.104806,3.43467 0.913109,6.996 3.23e-4,10.30882 -1.089292,3.95343 -1.460654,8.12348 -2.201321,12.27034 -0.639537,3.58065 -0.02359,7.4388 -1.401997,10.86542 -1.310415,3.25759 -0.716582,6.84563 -1.232767,10.33453 -0.653294,4.41563 -0.860568,8.79522 -1.016242,13.33224 -0.214885,6.26269 -2.022881,16.56231 -1.609678,22.72191"
       id="path6398"
       inkscape:connector-curvature="0"
       sodipodi:nodetypes="cssssssc" />
    <path
       style="fill:none;stroke:#873d48;stroke-width:4.46500015;stroke-linecap:round;stroke-linejoin:miter;stroke-miterlimit:4;stroke-dasharray:none;stroke-opacity:1"
       d="m 71.881119,191.38267 c -5.068897,3.4683 -7.249265,10.27235 -12.234643,14.3728 -2.748584,3.72594 -3.846411,8.07579 -4.336071,12.79083 -0.455677,5.41855 -1.756831,10.51115 -2.917377,15.95623 -1.706619,5.01754 -0.738826,10.96578 -2.466501,16.0651 -0.630239,5.15172 -1.309391,10.72186 -2.634206,15.65052 -1.392494,3.1586 -2.329057,6.62012 -2.138156,10.15624"
       id="path6404"
       inkscape:connector-curvature="0" />
    <path
       style="fill:none;stroke:#873d48;stroke-width:4.46500015;stroke-linecap:round;stroke-linejoin:miter;stroke-miterlimit:4;stroke-dasharray:none;stroke-opacity:1"
       d="m 71.881119,191.38267 c 5.319423,-1.0246 6.678958,4.51866 7.416771,7.20406 1.589166,5.78404 4.738565,10.51358 6.681695,16.18202 2.11264,6.16292 0.83853,12.46827 4.10174,18.05813 2.98118,5.10674 6.63522,12.9333 9.67291,15.93555 1.769885,1.74923 4.334345,9.07041 5.268305,13.71394 1.30318,6.47923 9.32054,13.83957 8.41899,17.77341"
       id="path6406"
       inkscape:connector-curvature="0"
       sodipodi:nodetypes="csssssc" />
    <path
       style="fill:none;stroke:#873d48;stroke-width:4.46500015;stroke-linecap:butt;stroke-linejoin:miter;stroke-miterlimit:4;stroke-dasharray:none;stroke-opacity:1"
       d="m 78.830122,98.372887 c 5.203013,5.490323 11.106843,10.441633 15.686803,16.418033 6.790055,4.46701 12.240755,11.26101 20.127315,14.05069 3.10884,0.6806 7.2007,2.79089 7.2007,2.79089 6.06529,1.7498 9.97901,3.43881 13.64632,8.43443 -0.68282,4.95216 -11.03158,4.22703 -11.88953,5.58547 -6.43903,2.04704 -13.05659,4.0991 -19.84167,5.46028 -5.576355,0.75555 -10.974725,2.15299 -16.663435,1.78319 -5.086237,0.0129 -5.777929,-1.09699 -10.596238,0.44218 -1.278403,2.63141 -0.03288,2.5229 -1.278403,2.63141"
       id="path6410"
       inkscape:connector-curvature="0"
       sodipodi:nodetypes="cccccccccc" />
    <path
       style="fill:none;stroke:#873d48;stroke-width:2.46499991;stroke-linecap:butt;stroke-linejoin:miter;stroke-miterlimit:4;stroke-dasharray:none;stroke-opacity:1"
       d="m 52.771344,62.826037 c 1.84317,0.44677 3.720641,1.11451 5.614226,1.565812 1.825317,0.588409 3.672144,1.18135 5.611095,1.106882 0.542788,0.04601 1.779367,0.331464 0.479195,0.275096 1.649633,0.308786 3.387562,-0.06643 4.999831,0.259444 0.513392,0.188042 1.024052,0.162299 1.336347,0.534538"
       id="path6418"
       inkscape:connector-curvature="0" />
    <path
       style="fill:none;stroke:#873d48;stroke-width:2.46499991;stroke-linecap:butt;stroke-linejoin:miter;stroke-miterlimit:4;stroke-dasharray:none;stroke-opacity:1"
       d="m 59.185813,65.498731 c 9.12e-4,1.2027 -0.0013,2.405678 0,3.608139 0.644922,0.997469 1.56786,1.936937 2.939965,1.737251 1.199272,0.312377 1.619816,-0.784013 2.008115,-1.601531 0.280668,-1.146299 0.35458,-2.591077 0.530946,-3.610223 -1.59092,-0.153159 -3.113966,-0.453208 -4.677217,-0.668174 -0.317785,-0.388971 -1.596969,-0.05604 -0.801809,0.534538 z"
       id="path6420"
       inkscape:connector-curvature="0" />
    <path
       style="fill:none;stroke:#873d48;stroke-width:2.46499991;stroke-linecap:butt;stroke-linejoin:miter;stroke-miterlimit:4;stroke-dasharray:none;stroke-opacity:1"
       d="m 77.360142,66.567809 c 1.805618,-0.253893 3.621832,0.327991 5.456593,0.267271 2.50199,0 5.00399,0 7.50598,0 0.95591,0.556326 2.17228,0.376328 3.25112,0.534538 0.87609,0.241265 1.83872,0.09368 2.76244,0.133636"
       id="path6422"
       inkscape:connector-curvature="0" />
    <path
       style="fill:none;stroke:#873d48;stroke-width:2.46499991;stroke-linecap:butt;stroke-linejoin:miter;stroke-miterlimit:4;stroke-dasharray:none;stroke-opacity:1"
       d="m 82.571897,66.567809 c 0,0.712719 0,1.425437 0,2.138156 0.461708,1.331865 0.326548,2.924724 1.803668,3.82159 0.73274,0.385919 1.49494,0.684436 2.42679,0.588358 1.00916,0.21894 1.68863,-0.513888 2.31765,-1.202713 1.06323,-1.072445 0.87073,-1.873777 1.33634,-3.073599 0.24444,-0.699167 0.0756,-1.647034 0.26727,-2.138156"
       id="path6424"
       inkscape:connector-curvature="0" />
    <path
       sodipodi:nodetypes="csssccc"
       style="fill:none;stroke:#873d48;stroke-width:2.46499991;stroke-linecap:round;stroke-linejoin:miter;stroke-miterlimit:4;stroke-dasharray:none;stroke-opacity:1"
       d="m 82.972805,88.48391 c -1.161368,-0.936598 -2.468539,-1.897477 -4.042871,-2.063979 -0.08096,-0.0086 0.0077,-0.104204 -2.103348,-0.207813 -1.337853,-0.06566 -2.732864,-0.252024 -4.010586,0.149221 -0.503289,0.158048 -0.322799,-0.222189 -3.457365,0.767376 m 0,0 -1.606403,1.417415"
       id="path6426"
       inkscape:connector-curvature="0" />
    <path
       style="fill:none;stroke:#873d48;stroke-width:2.46499991;stroke-linecap:round;stroke-linejoin:miter;stroke-miterlimit:4;stroke-dasharray:none;stroke-opacity:1"
       d="m 55.184522,54.24479 c 1.328086,0.449089 2.039954,1.734227 3.496271,2.362343 1.246139,0.809937 2.364454,1.846594 3.685259,2.551348 0.77161,0.800422 1.865153,1.268776 3.118297,1.700885 0.996583,0.348238 1.992237,1.093266 3.023803,1.322906 0.04326,0.39739 0.782769,0.286911 1.039436,0.377968"
       id="path6428"
       inkscape:connector-curvature="0" />
    <path
       style="fill:none;stroke:#873d48;stroke-width:2.46499991;stroke-linecap:round;stroke-linejoin:miter;stroke-miterlimit:4;stroke-dasharray:none;stroke-opacity:1"
       d="m 75.878719,62.560266 c 1.251091,0.337715 2.605681,0.543609 3.023809,0.755942 2.016078,-0.04445 4.062627,0.09984 6.054427,-0.09495 1.25959,-0.61486 2.76474,-1.040489 4.05645,-1.605946 1.22004,-0.736866 2.17333,-1.134755 3.30731,-2.17336 0.61134,-0.227319 1.49844,-1.164287 2.26788,-1.700886"
       id="path6430"
       inkscape:connector-curvature="0" />
    <path
       style="fill:none;stroke:#873d48;stroke-width:0.465;stroke-linecap:round;stroke-linejoin:miter;stroke-opacity:1;stroke-miterlimit:4;stroke-dasharray:none"
       d="m 68.224701,70.119789 c -0.754615,1.701834 -1.00569,3.931525 -2.834817,4.819194 -0.49972,0.346493 -0.963511,0.616399 -1.322913,1.133924"
       id="path826"
       inkscape:connector-curvature="0" />
    <path
       style="fill:none;stroke:#873d48;stroke-width:0.465;stroke-linecap:round;stroke-linejoin:miter;stroke-opacity:1;stroke-miterlimit:4;stroke-dasharray:none"
       d="m 78.052082,69.930803 c -0.0261,1.147245 0.199374,2.223779 0.661449,3.212796 0.325359,1.197502 1.373411,2.54514 1.79538,3.212786 0.611221,0.81235 1.400074,1.623153 2.267862,2.07888"
       id="path828"
       inkscape:connector-curvature="0" />
    <path
       style="fill:none;stroke:#873d48;stroke-width:0.465;stroke-linecap:round;stroke-linejoin:miter;stroke-opacity:1;stroke-miterlimit:4;stroke-dasharray:none"
       d="m 64.066964,73.143601 c -1.1531,0.648422 -2.650325,1.126407 -3.617076,1.711562 l -0.162686,0.08382"
       id="path830"
       inkscape:connector-curvature="0" />
    <path
       style="fill:none;stroke:#873d48;stroke-width:0.465;stroke-linecap:round;stroke-linejoin:miter;stroke-opacity:1;stroke-miterlimit:4;stroke-dasharray:none"
       d="m 82.398808,74.466518 c -0.320825,2.481048 2.950674,2.781923 4.591901,3.618926 0.135585,0.324011 0.528507,0.0086 0.699763,0.255324"
       id="path832"
       inkscape:connector-curvature="0" />
    <path
       style="fill:none;stroke:#873d48;stroke-width:0.465;stroke-linecap:round;stroke-linejoin:miter;stroke-opacity:1;stroke-miterlimit:4;stroke-dasharray:none"
       d="m 85.422617,84.955355 c 0.819349,1.214215 2.068373,2.371391 2.267848,3.779759 -0.578399,1.291257 -2.151333,2.017662 -2.74032,3.307292"
       id="path834"
       inkscape:connector-curvature="0" />
    <path
       style="fill:none;stroke:#873d48;stroke-width:0.465;stroke-linecap:round;stroke-linejoin:miter;stroke-opacity:1;stroke-miterlimit:4;stroke-dasharray:none"
       d="m 74.555801,56.323661 c -0.678002,1.797377 -1.282522,3.733409 -1.606393,5.669642 0.344956,1.194203 0.983416,2.433532 1.511898,3.212803 0.115941,0.328678 0.153736,0.677455 0.18899,1.039421"
       id="path866"
       inkscape:connector-curvature="0" />
    <path
       style="fill:none;stroke:#873d48;stroke-width:0.465;stroke-linecap:round;stroke-linejoin:miter;stroke-opacity:1;stroke-miterlimit:4;stroke-dasharray:none"
       d="m 70.398065,55.37872 c 0.373239,1.38139 1.301221,2.58137 1.228424,4.063241"
       id="path868"
       inkscape:connector-curvature="0" />
    <path
       style="fill:none;stroke:#873d48;stroke-width:0.465;stroke-linecap:round;stroke-linejoin:miter;stroke-opacity:1;stroke-miterlimit:4;stroke-dasharray:none"
       d="m 98.622455,77.438082 c -1.294716,1.311064 -2.441045,2.69544 -2.672697,4.543581 0,0.26727 0,0.53454 0,0.80181"
       id="path878"
       inkscape:connector-curvature="0" />
    <path
       style="fill:none;stroke:#873d48;stroke-width:0.465;stroke-linecap:round;stroke-linejoin:miter;stroke-opacity:1;stroke-miterlimit:4;stroke-dasharray:none"
       d="m 54.389347,76.101735 c 2.340656,-0.38728 3.132698,1.026253 3.207235,2.939963"
       id="path880"
       inkscape:connector-curvature="0" />
    <path
       style="fill:#959595;stroke:none;stroke-width:0.265;stroke-linecap:butt;stroke-linejoin:miter;stroke-opacity:1;fill-opacity:1;stroke-miterlimit:4;stroke-dasharray:none"
       d="m 68.980655,42.05506 c -2.851573,0.08929 -5.88098,-0.409533 -8.504465,0.944941 -3.138079,0.953704 3.435557,5.368612 -0.377976,6.80357 -2.907961,1.191634 -5.886232,1.88605 -8.315475,3.779763 -1.728315,1.433996 -5.977757,0.741626 -5.858632,3.63753 0.469292,3.15325 -3.454226,4.904755 -5.62954,2.799773 -1.009732,-1.175995 -3.718712,0.478767 -4.197842,-0.95665 0.756416,-2.79542 2.252796,-5.038318 2.612368,-7.889163 0.691334,-1.645633 2.723179,-5.25074 0.222455,-6.095955 -2.256792,-0.555468 -3.580975,-2.148693 -3.023809,-4.535715 1.740495,-2.382445 -2.547249,-1.565794 -0.566965,-4.157736 -0.126664,-2.50194 2.513461,-3.944264 4.740289,-3.96875 3.104325,-0.06555 6.12938,0.568182 9.244829,0.377975 3.060895,-1.054735 4.402052,-4.053373 5.050807,-6.904993 -0.31734,-2.180912 0.473192,-3.760786 2.697705,-4.245305 1.645494,-1.205654 3.972633,-1.193196 6.027801,-0.636247 -0.01117,0.242185 3.92426,0.704271 5.60957,0.636247 2.055551,0.231023 3.380759,-1.402067 5.465072,-0.94494 1.370482,6.83e-4 3.442993,-0.429184 3.119284,1.700892 0.04084,2.205771 1.60889,3.070925 3.715457,2.645834 2.504834,0.07175 4.996638,-0.09928 7.059722,-1.600046 1.593194,-0.554857 3.466956,-0.960284 5.586895,-0.8568 2.453636,-0.441967 4.032579,0.623803 5.207011,2.797083 2.460874,1.502576 5.329074,1.914045 7.913054,2.87256 2.20987,-0.238104 2.66636,2.136922 2.07887,3.96875 -0.4869,3.247655 3.73636,4.073728 4.91369,6.803573 1.73193,2.065776 0.40901,5.265979 2.43792,7.337631 1.20247,2.713611 4.64645,4.413176 4.55464,7.419026 0.0311,2.246461 -0.49414,4.926818 2.07887,6.032031 3.51338,-0.329392 1.95077,4.247161 -0.59814,3.96875 -2.14117,0.136811 -4.60322,-0.227204 -6.39442,0.944941 -0.27239,1.104374 0.66652,3.854331 -0.75595,3.590774 -3.18154,-1.034819 -5.8168,-3.607724 -9.07143,-4.346726 -2.86716,-1.913553 -4.33508,-5.662303 -4.15774,-9.071427 0.2986,-3.749443 -3.842431,-4.069301 -6.614581,-4.724705 -2.656724,0.594142 -2.054291,-1.690838 -2.078868,-3.368652 0.562737,-3.315836 -2.935131,-3.511203 -5.10268,-4.001882 -1.584929,0.0703 -3.427214,-0.276754 -4.724702,0.566965 1.53024,1.711726 2.452745,3.819526 1.700892,6.236607 -0.610736,1.925015 1.958311,3.868939 -1.022868,3.212796 -1.703552,0.229083 -1.170408,-1.865211 -1.244989,-2.943919 0.331306,-2.286903 -0.177303,-4.380926 -3.070565,-3.670665 -2.129135,-0.82454 -2.899579,1.797204 -4.677946,1.133931 -1.873563,-1.560765 -2.63986,-3.666356 -3.779763,-5.669643 -1.285021,-0.558744 -2.752108,0.973114 -3.590772,0"
       id="path987"
       inkscape:connector-curvature="0" />
    <path
       style="fill:#959595;fill-opacity:1;stroke:#959595;stroke-width:0.26458332px;stroke-linecap:butt;stroke-linejoin:miter;stroke-opacity:1"
       d="m 52.53869,49.236606 c -2.472779,0.787504 -1.859254,3.338384 -2.038575,6.204184 1.418213,1.746528 0.283061,2.214708 -0.607258,5.135103 -0.280259,1.866315 3.547039,4.634967 4.387019,6.393168 2.025347,3.35002 -6.002497,6.809246 -3.046033,9.923403 2.095152,1.253499 1.731262,4.935395 -1.274949,5.131763 -4.444216,1.689983 1.136203,4.82894 0.708523,7.636186 -0.161393,1.780239 -1.450794,3.447821 -0.389519,5.219013 0.752258,2.80768 -2.188894,3.262848 -4.164804,3.872061 -2.011037,1.034394 -0.107812,4.365543 -1.511904,5.953123 0.08441,2.86994 -4.291338,3.0369 -3.731244,-0.0396 -1.029174,-1.23171 -2.935742,-0.36198 -4.370471,-0.6219 -1.652832,-0.1802 -3.132441,0.0467 -4.18251,1.32292 -0.854811,-1.56091 1.067369,-4.08162 0.566962,-6.236608 -0.117596,-2.396012 0.246672,-4.872185 -0.204656,-7.212679 -1.875199,-3.481904 -6.887934,-2.574508 -9.433736,-4.126605 -0.864785,-2.336192 -1.55926,-5.649326 0.944941,-7.181549 1.835172,-0.863675 3.605984,-1.921944 3.023809,-4.312649 -0.289227,-2.487442 -1.95095,-3.82561 -1.511904,-6.236607 0.02207,-2.819024 2.673421,-3.235738 4.157737,-4.947768 1.409052,-1.192451 0.496213,-3.290799 0.755954,-4.913688 0.138308,-2.218073 -1.189797,-5.386727 1.133928,-6.803572 2.396877,-0.826859 4.329473,-2.803809 3.77976,-5.55811 -0.06431,-2.107967 -0.195016,-4.663123 2.078871,-5.592188 2.529891,-0.143623 3.432867,-3.372733 5.519383,-3.96875 3.16671,-0.683193 3.248176,2.799852 5.06395,4.346725 3.197646,-0.607843 3.239266,2.33521 3.779761,4.157739 1.580711,0.559929 3.590114,3.825826 0.566965,2.456845 z"
       id="path1061"
       inkscape:connector-curvature="0"
       sodipodi:nodetypes="ccccccccccccccccccccccccccccc" />
    <path
       style="fill:#959595;fill-opacity:1;stroke:none;stroke-width:0.26458332px;stroke-linecap:butt;stroke-linejoin:miter;stroke-opacity:1"
       d="m 108.29018,49.425595 c -0.0845,1.781689 -1.21214,3.739099 -1.33515,5.639493 -0.42369,2.103155 1.12631,3.580438 2.04732,5.273316 0.7513,1.485429 -3.22621,2.204676 -2.98003,3.639274 -0.0178,2.277571 -0.61592,3.350391 -1.90463,4.86116 -2.14059,1.16153 1.07465,3.822975 2.65436,5.63101 0.83556,1.514348 2.34055,2.163952 3.04132,3.865415 0.34489,1.789988 0.10755,3.726915 0.1777,5.587036 0.089,1.532616 0.0315,3.148093 -1.32201,4.152124 -1.32863,1.298467 -2.18026,2.969368 -2.10408,4.825166 1.16699,1.731793 1.86926,3.867209 2.67014,5.851898 0.75829,1.717123 1.39627,3.431173 2.8395,4.721283 0.35654,1.68236 2.7782,1.9819 2.45216,3.77321 0.10755,1.16098 -0.25828,2.46069 0.29031,3.50373 0.0655,1.01153 0.0534,2.78625 1.31609,1.32543 0.99986,-0.86415 1.90785,-2.08735 3.11831,-2.74032 1.53056,-1.18997 3.31793,-2.69762 2.21184,-4.84652 -0.80967,-1.93987 -2.34283,-3.55981 -2.58982,-5.625972 0.0747,-1.241615 -0.16882,-2.542375 0.16351,-3.733097 0.9369,-1.448629 2.79298,-2.311061 3.25545,-4.029645 -0.0719,-3.473238 0.0626,-6.956919 -0.0761,-10.425071 -0.64103,-1.460902 -1.78735,-2.632899 -1.46892,-4.344071 0.6587,-2.255325 2.3152,-2.629303 2.72521,-4.831608 1.29045,-1.371733 -0.005,-4.774991 -0.31669,-5.231898 -0.28345,-1.372438 -0.27476,-2.852775 -0.50274,-4.257287 -0.0309,-1.115605 0.10853,-2.276797 -0.1768,-3.327577 -0.31979,-1.628545 -1.36561,-3.309245 -3.22498,-3.397848 -1.78939,-0.357861 -3.0467,-1.847369 -4.72132,-2.461631 -1.80109,-0.709522 -2.66736,-2.572546 -4.16112,-3.774976 -0.56864,-0.464571 -1.63187,-0.213712 -2.07887,0.377976 z"
       id="path1075"
       inkscape:connector-curvature="0"
       sodipodi:nodetypes="ccccccccccccccccccccccccccccccc" />
    <path
       style="fill:#e1e1e1;stroke:#873d48;stroke-width:0.865;stroke-linecap:butt;stroke-linejoin:miter;stroke-opacity:1;fill-opacity:1;stroke-miterlimit:4;stroke-dasharray:none"
       d="m 41.159506,262.52223 c 2.55662,1.17122 5.848325,0.18175 8.018087,1.87088 2.156803,0.82358 6.351676,9.4e-4 5.362321,3.90654 -0.752086,3.14267 -1.161095,6.39651 -1.620549,9.72422 0.257374,2.49785 -1.292243,4.2847 -1.603901,6.54895 -0.373995,2.45185 -1.614604,5.26468 -4.739978,4.40909 -2.781287,0.0806 -5.518993,-0.0989 -8.259413,-0.26726 -1.89449,-0.34945 -3.196683,0.94074 -4.98159,0.8018 -2.332868,0.63728 -5.986901,0.50251 -6.34026,-2.40544 -1.196779,-1.58707 -1.326726,-3.908 -0.80181,-5.87991 2.604561,-1.00671 5.841892,-1.53139 8.723364,-1.8709 2.232717,0.32965 5.201251,-0.54274 4.372842,-3.37798 0.119238,-1.77384 -0.248242,-3.71297 0.168769,-5.37539 0.916001,-1.93454 1.191847,-4.19607 1.167581,-6.45865 -0.191461,-0.62676 0.330926,-1.0974 0.534537,-1.62595 z"
       id="path1088"
       inkscape:connector-curvature="0" />
    <path
       style="fill:#e1e1e1;stroke:#873d48;stroke-width:0.865;stroke-linecap:butt;stroke-linejoin:miter;stroke-opacity:1;fill-opacity:1;stroke-miterlimit:4;stroke-dasharray:none"
       d="m 111.71866,264.12584 c -2.09103,4.1e-4 -4.20583,-0.0999 -6.1472,0.53454 -3.24224,-0.81206 -7.481457,1.63777 -3.4745,4.54358 2.36801,1.96831 2.66941,4.97807 3.20723,7.70255 10e-4,3.49048 -0.002,6.98242 0,10.47179 0.89273,2.826 3.72456,3.29608 6.31794,3.4745 h 10.78731 c 1.99739,0.58732 4.24016,0.0988 6.33847,0.28324 4.4615,-0.4644 2.32383,-6.62726 -0.99308,-7.49951 -1.87796,-1.60992 -6.32676,-0.75053 -7.75081,-3.74179 0.008,-2.37899 0.17567,-4.69334 -1.19019,-6.72349 -1.38053,-1.655 -1.00647,-2.57803 -2.28432,-4.23455 -1.13407,-1.09521 -1.51673,-3.54567 -1.94925,-4.53961 -0.46553,-0.52244 0,0 -2.8616,-0.27125 z"
       id="path1090"
       inkscape:connector-curvature="0"
       sodipodi:nodetypes="cccccccccccccc" />
    <path
       style="fill:#5b270a;fill-opacity:1;stroke:#873d48;stroke-width:0.465;stroke-linecap:butt;stroke-linejoin:miter;stroke-miterlimit:4;stroke-dasharray:none;stroke-opacity:1"
       d="m 24.054257,283.50289 c 1.813304,-0.96452 1.846749,1.1188 2.958854,1.54515 0.922748,0.35375 1.758918,0.72076 2.770316,1.1064 0.770869,0.47701 1.814247,0.62559 2.620898,1.13029 0.881458,0.62831 1.952809,0.90955 2.825712,0.0939 1.984704,-1.06903 4.265813,-1.4473 6.499814,-1.3367 0.828368,-0.0565 1.72375,0.11538 2.50876,-0.0893 0.984899,-0.3533 2.075857,-0.35768 2.937729,-1.02658 1.143139,-0.10965 2.005922,-0.88308 3.163856,-0.90245 1.073808,-0.1765 2.035389,0.12063 2.372874,1.25223 0.125428,1.10326 0.782096,2.11975 0.6021,3.26185 0.416408,1.36562 -1.03091,1.82846 -1.936587,2.41823 -0.859158,0.47884 -1.691693,1.21384 -2.743307,1.11938 -1.024808,-0.11461 -1.886938,0.54421 -2.892009,0.39098 -3.959142,-0.042 -7.921133,0.0277 -11.87861,-0.0288 -0.932589,-0.25088 -1.871951,-0.32638 -2.698452,-0.80496 -0.979242,-0.0528 -1.782338,-0.46143 -2.693363,-0.74595 -0.892773,-0.51537 -2.015367,-0.72855 -2.675485,-1.6024 -0.583677,-0.82937 -1.05614,-1.67349 -1.35581,-2.63806 -1.146676,-1.55777 -2.143151,-2.37618 -0.38729,-3.14321 z"
       id="path1096"
       inkscape:connector-curvature="0"
       sodipodi:nodetypes="cscccccccccccccccccc" />
    <path
       style="fill:#5b270a;stroke:#873d48;stroke-width:0.565;stroke-linecap:butt;stroke-linejoin:miter;stroke-opacity:1;fill-opacity:1;stroke-miterlimit:4;stroke-dasharray:none"
       d="m 103.96784,283.23561 c 0.87496,1.35912 2.31111,2.16047 3.572,3.09545 1.3985,0.6562 2.6793,1.58422 4.2166,1.90372 1.60046,0.55627 3.30248,0.49261 4.95078,0.79025 1.50663,0.23585 3.06679,0.0145 4.5954,0.0884 1.59084,-0.012 3.18618,0.082 4.76013,-0.14289 1.13536,-0.0303 2.28882,-0.0413 3.37446,-0.39999 1.02258,-0.29748 2.35657,-0.56618 3.26683,0.10548 0.52281,1.25608 0.18248,2.82577 -0.87777,3.73105 -1.06133,1.33779 -2.86408,1.59135 -4.46631,1.52767 -1.00816,-0.0354 -2.03457,0.0455 -3.03059,-0.0655 -1.30078,-0.46532 -2.63501,-0.7873 -4.01081,-0.89384 -3.34246,-0.46739 -6.72603,-0.17052 -10.08743,-0.25157 -1.55463,0.23844 -2.87385,-0.29869 -4.30463,-0.78979 -1.17646,-0.41383 -2.61104,-0.56666 -3.47144,-1.55126 -0.43707,-1.34672 -0.85608,-2.7863 -0.78413,-4.22855 -0.45015,-1.3575 0.75539,-3.5142 2.29691,-2.91865 z"
       id="path1100"
       inkscape:connector-curvature="0" />
    <path
       style="fill:#5b270a;stroke:#873d48;stroke-width:0.465;stroke-linecap:butt;stroke-linejoin:miter;stroke-opacity:1;stroke-miterlimit:4;stroke-dasharray:none;fill-opacity:1"
       d="m 36.615925,286.71012 c -0.09564,-0.62865 -0.913931,-0.58401 -1.297937,-0.97188 -0.639235,-0.39883 -1.173476,-0.94236 -1.803631,-1.3533 -0.64054,-0.52685 -1.154459,-1.18165 -1.609042,-1.86946 -0.608257,-0.60546 -0.746265,-1.50279 -1.260055,-2.17322 -0.275826,-0.35172 -0.06711,-0.84716 -0.305017,-1.22031 -0.09636,-0.4972 0.469098,-0.78132 0.893577,-0.763 1.348168,-0.001 2.697207,-7.2e-4 4.04575,-7.9e-4 0.335182,0.32376 0.222496,0.90914 0.491868,1.23342 0.173462,0.43439 0.442228,0.89931 0.880801,1.17086 0.907757,0.65962 1.616806,1.54706 2.514408,2.22057 0.465964,0.44218 1.023639,0.82565 1.343283,1.39539 0.118172,0.46314 0.343745,1.06301 -0.05427,1.45622 -0.367242,0.3713 -0.954765,0.14528 -1.416328,0.20735 -0.419264,-0.0565 -0.856839,0.0926 -1.217951,0.21795 -0.370626,0.0682 -0.724183,0.15868 -1.034201,0.36299 -0.06104,0.0196 -0.122707,0.0438 -0.171255,0.0872 z"
       id="path1109"
       inkscape:connector-curvature="0" />
    <path
       style="fill:#5b270a;stroke:#873d48;stroke-width:0.465;stroke-linecap:butt;stroke-linejoin:miter;stroke-opacity:1;fill-opacity:1;stroke-miterlimit:4;stroke-dasharray:none"
       d="m 118.44829,288.96799 c 0.23853,-0.33269 0.36612,-0.73613 0.55381,-1.09408 0.22478,-0.50798 0.52782,-0.9763 0.77073,-1.47584 0.26855,-0.50777 0.63315,-0.95874 0.8572,-1.49082 0.23142,-0.45302 0.48154,-0.89621 0.65689,-1.37576 0.10467,-0.35692 0.40633,-0.63491 0.43744,-1.0051 0.1418,-0.41868 0.34233,-0.81507 0.49111,-1.23177 0.24979,-0.44739 0.79736,0.0713 1.17329,0.0548 0.46143,0.0943 0.91542,0.19677 1.35324,0.36051 0.12763,0.36801 -0.17761,0.78992 -0.21152,1.18374 -0.20437,0.38585 -0.30264,0.81969 -0.4822,1.21659 -0.12386,0.41418 -0.27402,0.82345 -0.33671,1.25302 -0.21784,0.48613 -0.22228,1.03487 -0.43886,1.52116 -0.13592,0.49565 -0.23948,0.99977 -0.29206,1.5109 -0.0477,0.42224 -0.33199,0.81202 -0.81029,0.67577 -0.41606,-0.0337 -0.81273,0.19574 -1.23449,0.13343 -0.52997,-9e-5 -1.05994,1.7e-4 -1.58991,1e-5 -0.28717,-0.12025 -0.60065,-0.14987 -0.89767,-0.23657 z"
       id="path1113"
       inkscape:connector-curvature="0" />
  </g>
  <g
     inkscape:groupmode="layer"
     id="layer3"
     inkscape:label="Layer 3">
    <path
       style="fill:#000000;stroke:#000000;stroke-width:0.26458332px;stroke-linecap:butt;stroke-linejoin:miter;stroke-opacity:1;fill-opacity:1"
       d="m 72.571427,102.90923 c -2.392554,2.1187 -5.560301,3.06668 -8.126487,4.7247 -2.756449,1.68067 -2.082843,5.93627 -3.401785,8.88244 -0.393157,4.83129 -1.911034,9.46816 -2.834859,14.16398 -0.390547,4.61625 -1.721812,9.06777 -2.076263,13.61757 -0.399073,3.67951 -0.01087,7.46256 -0.380544,11.13364 0,4.79315 0,9.5863 0,14.37945 -1.721451,3.4756 2.790669,1.45584 4.535712,1.70089 4.956067,-0.0905 9.842174,0.13454 14.741072,0.56697 2.635265,0.85666 5.459894,0.98029 8.126487,1.32291 1.457303,-2.25829 1.403894,-5.12864 1.889881,-7.74851 0.552131,-2.39921 1.322358,-4.70642 2.157821,-7.12129 1.631866,-3.10751 2.940216,-6.46016 4.078787,-9.88764 0.655455,-2.56393 1.463187,-5.38626 1.889882,-8.31547 1.17e-4,-9.57532 -1.59e-4,-19.15128 0,-28.72619 0.490864,-2.28405 0.605758,-3.44845 0.566962,-5.66965 -0.728057,-3.79737 -4.881817,-4.35743 -8.315476,-4.7247 -1.864119,0.0657 -3.831665,-0.13494 -5.622613,0.11934 -2.237878,0.73375 -4.398358,1.84388 -7.02324,1.58156 z"
       id="path993"
       inkscape:connector-curvature="0" />
    <path
       style="display:inline;fill:#959595;fill-opacity:1;stroke:none;stroke-width:0.26458332px;stroke-linecap:butt;stroke-linejoin:miter;stroke-opacity:1"
       d="m 80.84903,81.84803 c -1.596743,-0.425473 -2.930453,-1.770226 -4.276312,-1.069078 -0.250817,1.253824 0.528007,2.759494 1.968063,2.539061 0.999436,-0.01676 2.02064,0.06911 2.976425,-0.133636 0.750247,1.104221 2.527179,0.963898 2.945415,2.197405 0.351747,0.93812 1.259661,1.547141 0.796357,2.747081 1.216367,0.919596 1.563723,2.782875 3.362562,3.291916 0.497925,0.939073 -1.919662,0.815923 -2.560753,1.385301 -0.935331,-0.0041 -1.87356,0.0057 -2.80633,0 -0.933624,-0.939488 -2.647303,0.184567 -3.608138,-0.935443 -1.458535,-0.471351 -1.831251,2.104713 -2.704957,-0.09402 -0.610381,-0.756599 -2.585419,-1.606171 -2.430748,0.06632 -0.180073,-0.515461 -1.027994,-0.757889 -1.813304,-0.64047 -0.922711,-0.608286 -0.587964,-2.256643 -1.334532,-0.931069 -0.612237,0.26642 -1.904386,0.423958 -1.872702,1.599242 -1.572182,0.36684 -2.345454,-1.864845 -3.741096,-0.39529 -0.846464,-0.01376 -1.693359,-1.53e-4 -2.539737,-0.0056 -0.647623,-1.023524 -2.670283,-1.856113 -0.668173,-2.672697 0.992198,-0.551548 -2.27613,-2.802845 -0.935445,-3.340868 -0.244476,-1.411323 3.657115,-0.497735 4.524851,-1.177063 0.440311,-0.807195 0.888661,-0.480632 1.895642,-0.56019 0.984257,0.104953 1.72393,-0.5636 2.533036,-0.801807 0.917496,-0.180249 3.12897,-0.322337 2.405425,-1.737251 -0.405058,-1.125578 -1.865197,-0.51192 -2.80633,-0.668176 -0.549268,-0.607825 -1.698994,-1.003189 -2.405425,-0.400905 -1.20507,0.475176 -2.643043,0.998181 -3.741774,1.469983 -0.88458,0.484122 -2.764303,0.73487 -3.424388,0.694666 -0.03327,1.179853 -2.904015,0.564831 -3.257349,1.844394 -0.805658,-0.0422 -3.399682,-0.04414 -2.271792,1.069079 1.690572,1.094679 0.419565,0.810436 -0.668174,1.469982 -0.799774,0.741287 -2.444369,1.756293 -2.00452,3.207234 1.555972,0.339842 0.673621,1.976841 2.138156,2.472243 1.250819,0.284457 1.382685,0.91145 0.534538,1.80407 -0.490122,0.829554 -0.40882,1.771923 -0.400902,2.75164 0.03306,1.289662 -0.601935,2.644592 1.069078,2.861021 0.967806,0.860445 1.931801,1.882245 1.737251,3.249715 -0.324711,1.19758 1.011235,1.05863 1.822218,1.0266 1.174108,0.0463 2.381863,-0.11478 3.523173,0.13363 0.94514,1.30541 2.523789,1.6682 3.396049,2.91384 -0.02556,1.42833 2.055364,0.64588 2.963727,0.6943 h 4.197368 c 0.810934,-0.82688 0.868961,-2.00252 2.296045,-1.60361 0.931581,-0.0421 2.462842,-0.16764 2.104065,1.2187 0.08154,0.98026 1.439241,0.33267 2.141809,0.51855 1.087833,-0.14299 1.978708,0.37287 3.043324,0.26727 0.943442,0.0143 1.978915,-0.11501 2.709156,0.4009 1.184238,0.24268 2.10611,-0.34133 2.539061,-1.46998 0.05087,-1.2831 1.477597,-0.87445 2.368965,-0.93544 1.570733,-9.5e-4 3.145782,0.001 4.713677,0 1.29289,-0.6703 0.962963,-1.9591 1.737251,-3.0736 0.603035,-1.83337 2.461267,-0.0472 3.474504,-0.40091 0.81701,-1.09345 -0.548868,-2.867099 0.66818,-3.608138 0.72505,-0.830759 0.77867,-2.284863 0.31524,-3.204852 0.59257,-1.921009 -1.906009,-1.946819 -2.921123,-2.741896 -1.467177,-0.594974 0.304561,-2.176736 3.6e-4,-2.911253 -1.055096,-0.354366 -2.701364,-0.460662 -3.274412,-1.298242 0.02025,-0.906983 -0.10741,-1.827483 0.267269,-2.539061 -0.824802,0.08813 -1.587507,-0.162499 -2.406025,-0.135399 -1.205698,-0.694665 -2.68248,-0.504396 -3.741172,-1.334583 -0.906668,-1.091805 -2.139814,-1.180519 -3.372738,-1.624375 -0.04755,-1.28404 -0.574125,-2.186625 -2.106288,-1.850128 -0.798435,1.742246 -2.101799,-0.244981 -3.073601,0.400904 z"
       id="path929"
       inkscape:connector-curvature="0"
       sodipodi:nodetypes="ccccccccccccccccccccccccccccccccccccccccccccccccccccccccccccccc" />
    <path
       style="fill:none;stroke:#fa0000;stroke-width:0.83303541;stroke-linecap:butt;stroke-linejoin:miter;stroke-miterlimit:4;stroke-dasharray:none;stroke-opacity:1"
       d="M 77.009784,124.29226 86.6033,125.8878"
       id="path1149"
       inkscape:connector-curvature="0"
       sodipodi:nodetypes="cc" />
    <path
       style="fill:none;stroke:#ff932e;stroke-width:0.84578782;stroke-linecap:butt;stroke-linejoin:miter;stroke-miterlimit:4;stroke-dasharray:none;stroke-opacity:1"
       d="m 77.104672,125.0532 9.426425,1.58816"
       id="path1151"
       inkscape:connector-curvature="0"
       sodipodi:nodetypes="cc" />
    <path
       style="fill:none;stroke:#f5fc00;stroke-width:0.93083924;stroke-linecap:butt;stroke-linejoin:miter;stroke-miterlimit:4;stroke-dasharray:none;stroke-opacity:1"
       d="m 77.069376,125.85745 9.497013,1.41623"
       id="path1155"
       inkscape:connector-curvature="0"
       sodipodi:nodetypes="cc" />
    <path
       style="fill:none;stroke:#5cfc00;stroke-width:0.86672407;stroke-linecap:butt;stroke-linejoin:miter;stroke-miterlimit:4;stroke-dasharray:none;stroke-opacity:1"
       d="m 77.064861,126.60295 9.630733,1.41555"
       id="path1155-3"
       inkscape:connector-curvature="0"
       sodipodi:nodetypes="cc"
       inkscape:transform-center-x="-0.55714998"
       inkscape:transform-center-y="-0.29627783" />
    <path
       style="fill:none;stroke:#00bffc;stroke-width:0.93125206;stroke-linecap:butt;stroke-linejoin:miter;stroke-miterlimit:4;stroke-dasharray:none;stroke-opacity:1"
       d="m 77.054144,127.39203 11.280162,1.39521"
       id="path1155-3-9"
       inkscape:connector-curvature="0"
       sodipodi:nodetypes="cc"
       inkscape:transform-center-x="-0.65257106"
       inkscape:transform-center-y="-0.29202227" />
    <path
       style="fill:none;stroke:#9100fc;stroke-width:0.98925841;stroke-linecap:butt;stroke-linejoin:miter;stroke-miterlimit:4;stroke-dasharray:none;stroke-opacity:1"
       d="m 77.055953,128.26582 12.898142,1.37693"
       id="path1155-3-9-0"
       inkscape:connector-curvature="0"
       sodipodi:nodetypes="cc"
       inkscape:transform-center-x="-0.74617361"
       inkscape:transform-center-y="-0.28819681" />
  </g>
  <g
     inkscape:groupmode="layer"
     id="layer4"
     inkscape:label="Layer 4" />
  <g
     inkscape:groupmode="layer"
     id="layer2"
     inkscape:label="Layer 2">
    <path
       style="display:inline;fill:none;stroke:#873d48;stroke-width:4.46500015;stroke-linecap:butt;stroke-linejoin:miter;stroke-miterlimit:4;stroke-dasharray:none;stroke-opacity:1"
       d="m 41.825375,132.91738 c -9.642911,-3.93301 -11.943403,-0.58957 -9.642911,-3.93301 3.958562,-4.34842 14.595237,-15.46106 18.58436,-19.92071 2.871823,-3.92439 12.016479,-5.78193 13.096205,-10.690776 2.197147,-4.080882 7.746978,-15.485707 -0.61201,-15.532106 -6.185203,1.750356 -0.870282,9.280935 2.215629,11.255794"
       id="path6408"
       inkscape:connector-curvature="0"
       sodipodi:nodetypes="cccccc" />
    <path
       style="fill:#5b270a;fill-opacity:1;stroke:#873d48;stroke-width:1.66499996;stroke-linecap:butt;stroke-linejoin:miter;stroke-miterlimit:4;stroke-dasharray:none;stroke-opacity:1"
       d="m 56.512341,172.84511 c -2.77109,3.97953 -0.814969,7.03515 -3.442117,9.83278 -0.703289,4.97574 -1.491391,10.01666 -2.968895,14.87641 -1.820165,3.93154 -0.891306,8.43762 -2.475296,12.44749 -0.795907,6.08587 -3.191602,11.75557 -5.042363,17.56535 -1.536363,4.33128 -2.335598,8.88324 -3.955143,13.23415 -2.086345,5.81398 -1.547636,11.97432 -1.586865,18.02311 3.66007,0.83499 7.541981,0.17197 11.295728,0.36728 3.700539,-0.54383 6.694463,2.51362 10.41993,2.28536 3.343598,-2.61938 -0.118742,-9.26826 1.815823,-13.19399 1.622458,-4.86415 0.320999,-10.12477 2.010343,-14.98682 0.215185,-4.36209 2.223226,-8.09825 3.735169,-11.98094 1.768851,-4.26528 0.80541,-9.17585 2.335115,-13.57811 0.09446,-4.108 2.831627,-1.5151 2.174318,1.14633 0.349563,4.50773 1.578752,8.8616 2.35972,13.27556 2.000882,4.01621 1.171644,8.67802 3.227261,12.65213 2.396031,3.95665 2.75442,8.56113 4.241701,12.87146 0.98309,4.34918 2.175815,8.65985 2.713399,13.13428 -0.303948,5.7604 6.025755,2.55427 9.218073,2.27815 3.365989,-1.58505 7.069719,-1.49346 10.515218,-2.71793 3.16089,-0.59123 10.15974,-2.32678 6.74204,-6.43462 -1.10575,-6.30912 -4.28712,-11.95064 -5.71249,-18.16353 -0.54736,-3.77529 -2.11343,-7.40177 -3.11936,-11.04453 -1.179235,-3.2946 -1.477738,-6.84269 -3.400718,-9.86958 -3.511045,-6.5276 -7.426607,-12.95848 -9.38846,-20.16457 -0.891947,-4.4365 -3.901811,-8.31658 -5.235983,-12.7189 -0.341689,-3.86214 -1.366704,-7.42281 -1.284211,-11.17348 -1.850431,-3.49666 -7.742244,-2.49291 -11.430107,-2.69834 -3.370831,-0.34069 -6.60067,0.39529 -9.700115,1.70362 -1.275644,1.19651 -3.55701,-1.20212 -4.061715,3.03188 z"
       id="path969"
       inkscape:connector-curvature="0"
       sodipodi:nodetypes="cccccccccccccccccccccccccccccc" />
    <path
       style="fill:#e1e1e1;stroke:#873d48;stroke-width:2.865;stroke-linecap:butt;stroke-linejoin:miter;stroke-opacity:1;fill-opacity:1;stroke-miterlimit:4;stroke-dasharray:none"
       d="m 66.204387,107.07888 c 1.980658,-1.48991 0.964855,1.80809 1.147533,2.97675 0.443937,2.84003 -0.806105,5.48477 -1.178261,8.23444 -0.395404,2.92143 -0.658554,5.80604 -1.227164,8.72651 -0.569571,2.92541 -0.941811,5.86328 -1.336347,8.81989 -0.316602,2.37258 -0.336765,4.73923 -0.267272,7.15844 0.0952,3.31408 0.578648,6.71673 -0.125938,9.94908 -0.560599,2.5718 0.166033,6.23557 -2.107128,7.54796 -1.805291,1.04227 -0.271575,1.19569 -0.377502,1.67078 -0.565233,2.53512 -1.292849,4.76802 -2.077812,7.27879 -0.745926,2.3859 -0.728418,4.95327 -1.458819,7.28719 -0.343602,1.09794 0.286116,4.32412 -0.879712,3.4606 -2.231976,-1.65321 -3.76348,-4.45048 -6.336563,-5.33149 -1.893689,-0.64839 -1.311733,-2.5384 -1.336349,-3.9366 -0.144683,-8.21804 -0.838319,-16.49037 0,-24.66124 0.17518,-1.70743 0.703215,-3.37029 0.801809,-5.12135 0.07413,-1.31651 1.283502,-3.73504 0,-3.96581 -2.832514,-0.50927 -5.196102,1.987 -8.088279,2.19884 -1.284042,0.0941 -2.366384,1.37112 -2.067964,-0.86249 0.236228,-1.76811 0.539263,-2.11299 1.076198,-4.1996 0.421068,-1.63634 0.628799,-1.76775 1.061958,-2.74941 0.582331,-1.31972 0.739116,-2.98527 1.031617,-4.64499 0.105115,-0.59645 0.589113,-1.73589 1.908349,-2.03675 1.97218,-0.44977 3.730452,-1.04853 5.34539,-2.67269 1.146136,-1.15268 2.573867,-1.48436 3.207234,-2.93997 1.042982,-2.39699 3.383766,-3.37449 5.147932,-5.14793 1.083617,-1.08931 2.079877,-2.1637 2.827606,-3.36214 1.124996,-1.80312 3.121756,-1.63872 4.544391,-2.67604 0.339366,-0.24745 0.429514,-0.74834 0.765093,-1.00077 z"
       id="path1054"
       inkscape:connector-curvature="0"
       sodipodi:nodetypes="sssssssssssssssssssssssssssss" />
    <path
       style="fill:#e1e1e1;fill-opacity:1;stroke:#873d48;stroke-width:2.66499996;stroke-linecap:butt;stroke-linejoin:miter;stroke-miterlimit:4;stroke-dasharray:none;stroke-opacity:1"
       d="m 95.281585,106.16958 c -2.455132,0.97877 -4.270219,2.41604 -4.572281,4.83143 -0.269842,2.15774 -0.431093,5.24414 -1.29381,7.60231 -0.673605,1.84124 -1.78693,3.43268 -1.751091,5.47329 0.05234,2.98002 -0.205369,6.01431 0.133634,8.95354 0.237282,2.05729 0.43561,4.21704 0.133637,6.28083 -0.404773,2.76637 -1.354831,5.16173 -1.870887,7.75081 -0.631444,3.16799 -1.515688,6.48026 -1.603618,9.62171 -0.06658,2.37855 -0.694098,3.34882 -1.349058,5.63019 -0.544166,1.89545 -1.388426,4.61562 -2.125445,6.66421 -0.83927,2.3328 -0.986022,4.00355 -1.346303,6.26284 -0.468743,2.93945 -2.063399,6.93799 0.01,8.97152 1.475295,1.44693 3.432957,-3.14228 5.34539,-4.00905 1.928782,-0.87418 4.628169,-0.61434 6.414468,-2.67269 1.29144,-1.48813 1.485715,-3.71112 2.138156,-5.61266 0.661112,-1.92681 1.894928,-4.15818 2.406618,-5.95842 0.39502,-1.38977 1.14141,-3.40109 1.067885,-5.3303 -0.128115,-3.36158 -0.299709,-6.74378 0,-10.09284 0.179601,-2.00692 0.753646,-3.81245 0.801809,-5.778 0.04012,-1.6371 0.4327,-3.33419 0,-4.91278 -0.399,-1.45564 -0.76263,-2.85294 -0.801809,-4.50506 -0.04525,-1.90798 0.984007,-4.78231 2.405428,-1.64214 0.648242,1.43209 2.668252,3.30104 3.207232,0.80181 0.42989,-1.99339 1.06266,-3.8021 1.46997,-5.7463 0.33463,-1.59726 0.26377,-3.25158 0.40091,-4.85219 0.13899,-1.62217 -0.1178,-3.31514 0.5207,-4.66356 0.64747,-1.36737 0.7281,-2.80894 0.81565,-3.96209 0.2021,-2.66178 -2.87243,-2.53305 -4.27631,-3.76104 -2.069268,-1.81002 -3.727144,-6.36345 -6.280875,-5.34537 z"
       id="path1058"
       inkscape:connector-curvature="0"
       sodipodi:nodetypes="sssssssssssssssssssssssssssss" />
    <path
       style="fill:#5b270a;fill-opacity:1;stroke:#873d48;stroke-width:1.36500001;stroke-linecap:butt;stroke-linejoin:miter;stroke-miterlimit:4;stroke-dasharray:none;stroke-opacity:1"
       d="m 61.605625,85.456185 c -0.814104,0.689662 -2.254989,-1.049445 -3.453592,-0.505219 -4.942833,-0.37955 -9.916098,-0.418942 -14.863804,-0.15379 -1.596101,0.663783 -2.939808,1.943967 -4.600522,2.450635 -1.446707,0.16391 -2.387865,-1.319496 -2.213006,-2.626636 -0.160891,-1.632035 0.46852,-3.697134 -0.350743,-5.061647 -1.36825,-0.299491 -2.701462,-0.673159 -4.136065,-0.418633 -1.889144,-0.301455 -3.811935,-0.153173 -5.706621,-0.40603 -1.819325,-0.3692 -1.494063,1.541306 -1.555862,2.684494 -0.932183,1.093117 -0.05066,3.002854 -0.433183,4.417979 -0.140863,1.569174 0.29432,3.081985 0.923383,4.499075 0.41335,1.517791 0.940858,3.280451 2.540288,3.939821 1.407491,0.765733 2.550876,2.122183 4.288345,2.137547 1.762351,0.026 3.532531,0.697407 5.283634,0.314539 1.273414,-0.588652 2.54572,-1.372791 3.418361,-2.492391 1.108128,-1.348898 1.84234,-2.845616 2.13357,-4.570215 0.08217,-1.389735 0.810288,-2.807337 2.424712,-2.074921 2.6113,-0.04458 5.308842,-0.629782 7.848284,0.27655 2.063107,0.779349 4.159762,-0.275608 6.261425,-0.102929 1.479594,0.05223 1.898895,-1.826911 2.191396,-2.308229 z"
       id="path1084"
       inkscape:connector-curvature="0" />
    <path
       style="fill:#cbb9ad;stroke:none;stroke-width:0.26458332px;stroke-linecap:butt;stroke-linejoin:miter;stroke-opacity:1;fill-opacity:1"
       d="m 55.257974,124.27707 c 0.01113,0.44531 -0.951451,-0.22424 -1.336341,0 -0.367853,0.21431 0.02967,0.79211 0.229585,1.11518 0.255589,0.41304 0.810142,0.6278 0.919375,1.1156 0.07416,0.33117 -0.270819,0.5951 -0.23286,0.95121 0.04975,0.46677 0.426922,0.76293 0.725657,1.06687 0.185891,0.18913 0.541592,0.2976 0.563204,0.56193 0.02953,0.3612 0.287953,0.50386 0.582061,0.49377 0.308844,-0.0106 0.780005,0.29482 0.940148,-0.1119 0.134907,-0.34263 0.115572,-0.73641 -0.02636,-1.07532 -0.116457,-0.27808 -0.154878,-0.59789 -0.382796,-0.81847 -0.271495,-0.26275 -0.579809,-0.49549 -0.792879,-0.8113 -0.162704,-0.24116 0.01075,-0.49171 0.16339,-0.68051 0.206087,-0.25491 0.402047,-0.53739 0.712545,-0.6717 0.277126,-0.11988 0.382181,-0.41013 0.342495,-0.69843 -0.03648,-0.265 0.02526,-0.55788 -0.09605,-0.79604 -0.150093,-0.29466 -0.586971,-0.11664 -0.822127,0.0233 -0.217238,0.12927 -0.516938,0.22088 -0.711058,0.0218 -0.127595,-0.13086 -0.281926,-0.55383 -0.461607,-0.23659 -0.106487,0.18801 -0.321946,0.32803 -0.316383,0.55056 z"
       id="path1122"
       inkscape:connector-curvature="0"
       sodipodi:nodetypes="sssssssssssssssssssss" />
    <path
       style="fill:#cbb9ad;stroke:none;stroke-width:0.26458332px;stroke-linecap:butt;stroke-linejoin:miter;stroke-opacity:1;fill-opacity:1"
       d="m 91.940718,151.13765 c -0.328662,0.25956 -0.622155,0.61082 -1.037479,0.72565 -0.370582,-0.006 -0.723471,0.19251 -0.900857,0.52011 -0.134693,0.35534 -0.06569,0.76414 -0.04327,1.13521 0.236548,0.22531 0.507525,0.47547 0.382128,0.85581 -0.0112,0.41269 -0.0011,0.82657 -0.0041,1.23979 0.2409,0.33993 0.384077,0.74197 0.534885,1.12596 0.06791,0.28128 0.0575,0.80522 0.472301,0.75166 0.381491,-0.15032 0.751876,0.13 0.668958,0.53915 -0.02015,0.41915 -0.06513,0.87206 0.263988,1.19695 0.164943,0.42075 0.796101,0.39794 0.753395,-0.11682 0.02729,-0.43809 -0.06169,-0.84839 -0.308776,-1.21143 -0.156743,-0.37992 -0.416295,-0.73559 -0.31026,-1.1716 -0.01566,-0.37378 -0.07448,-0.82942 0.279322,-1.0801 0.262604,-0.26101 0.65602,-0.43272 0.71794,-0.83695 0.163302,-0.26348 0.05655,-0.61921 -0.267712,-0.62496 -0.304912,-0.32167 -0.759332,0.0697 -1.037878,-0.0707 -0.13916,-0.41857 0.362985,-0.73168 0.585746,-1.03041 0.339922,-0.29836 0.846809,-0.3852 1.08549,-0.79486 0.20411,-0.29076 0.302014,-0.65264 0.321892,-1.00018 -0.247128,-0.30174 -0.84813,-0.19457 -1.005232,0.16324 -0.168394,0.36596 -1.00068,0.27692 -0.804247,-0.22788 0.02549,-0.27699 -0.204461,-0.23059 -0.346194,-0.0877 z"
       id="path1131"
       inkscape:connector-curvature="0" />
    <path
       style="fill:#c6c6c6;stroke:none;stroke-width:0.26458332px;stroke-linecap:butt;stroke-linejoin:miter;stroke-opacity:1;fill-opacity:1"
       d="m 31.372024,75.127976 c 0.427159,-2.83188 -2.23501,-4.79654 -2.65607,-7.441144 C 27.142858,65.225758 23.83166,67.12298 21.550648,66.08271 19.08213,66.139478 16.19212,66.253534 14.559086,64.001895 12.915383,62.188039 12.704041,58.404182 9.4644158,58.855853 7.2340046,59.100586 6.0436979,56.977064 5.5043915,55.153417 4.8354955,53.03556 5.2169875,50.701852 6.3572511,48.827796 7.0215813,46.647019 5.1856407,44.418734 6.2018712,42.284687 c 2.7794879,-2.49254 2.4187166,-6.912099 0.4075851,-9.762868 -0.912329,-1.47511 -1.9372968,-3.108347 -1.6807805,-4.924436 2.3823486,-0.693689 5.1535162,0.110661 6.9716082,1.753554 2.148377,1.974723 0.0408,5.170498 1.618064,7.228287 1.814621,1.800591 5.010523,1.369441 6.438684,3.707541 1.133889,1.627035 1.838481,3.552404 2.288162,5.462531 -0.299924,2.424652 -3.641634,3.696321 -2.708851,6.473823 0.429809,2.530553 3.232216,3.302967 5.180254,4.374583 2.860021,2.03639 6.728437,2.543416 9.020729,5.352003 1.483732,2.36807 -0.814442,5.043602 -0.136765,7.621446 1.033205,1.96437 0.126712,3.695238 -0.442585,5.572344 0.322257,1.702831 -1.206119,-0.185648 -1.785952,-0.01552 z"
       id="path1137"
       inkscape:connector-curvature="0" />
    <path
       style="fill:#000000;stroke:#e1e1e1;stroke-width:0.26458332px;stroke-linecap:butt;stroke-linejoin:miter;stroke-opacity:1;fill-opacity:1"
       d="m 75.122767,120.29613 -7.465029,11.43378 13.985118,0.56696 z"
       id="path1145"
       inkscape:connector-curvature="0" />
    <path
       style="fill:none;stroke:#ffffff;stroke-width:0.26458332px;stroke-linecap:butt;stroke-linejoin:miter;stroke-opacity:1"
       d="m 72.854909,127.66667 -6.992559,3.30729 0.09449,-0.18899"
       id="path1147"
       inkscape:connector-curvature="0"
       sodipodi:nodetypes="ccc" />
  </g>
</svg>
