<?xml version="1.0" encoding="UTF-8" standalone="no"?>
<!-- Created with Inkscape (http://www.inkscape.org/) -->

<svg
   xmlns:dc="http://purl.org/dc/elements/1.1/"
   xmlns:cc="http://creativecommons.org/ns#"
   xmlns:rdf="http://www.w3.org/1999/02/22-rdf-syntax-ns#"
   xmlns:svg="http://www.w3.org/2000/svg"
   xmlns="http://www.w3.org/2000/svg"
   xmlns:sodipodi="http://sodipodi.sourceforge.net/DTD/sodipodi-0.dtd"
   xmlns:inkscape="http://www.inkscape.org/namespaces/inkscape"
   width="160mm"
   height="297mm"
   viewBox="0 0 160 297"
   version="1.1"
   id="svg2138"
   inkscape:version="0.92.3 (2405546, 2018-03-11)"
   sodipodi:docname="stick-figure2.svg">
  <defs
     id="defs2132" />
  <sodipodi:namedview
     id="base"
     pagecolor="#ffffff"
     bordercolor="#666666"
     borderopacity="1.0"
     inkscape:pageopacity="0.0"
     inkscape:pageshadow="2"
     inkscape:zoom="0.7"
     inkscape:cx="125.04465"
     inkscape:cy="729.62532"
     inkscape:document-units="mm"
     inkscape:current-layer="layer1"
     showgrid="false"
     inkscape:pagecheckerboard="true"
     inkscape:window-width="1290"
     inkscape:window-height="736"
     inkscape:window-x="482"
     inkscape:window-y="131"
     inkscape:window-maximized="0" />
  <metadata
     id="metadata2135">
    <rdf:RDF>
      <cc:Work
         rdf:about="">
        <dc:format>image/svg+xml</dc:format>
        <dc:type
           rdf:resource="http://purl.org/dc/dcmitype/StillImage" />
        <dc:title></dc:title>
      </cc:Work>
    </rdf:RDF>
  </metadata>
  <g
     inkscape:label="Layer 1"
     inkscape:groupmode="layer"
     id="layer1"
     style="display:inline">
    <path
       style="fill:none;stroke:#873d48;stroke-width:6.76499987;stroke-linecap:butt;stroke-linejoin:miter;stroke-miterlimit:4;stroke-dasharray:none;stroke-opacity:1"
       d="m 95.400835,35.297277 c -2.49245,-1.967481 -5.65898,-2.595753 -9.33523,-2.672697 -5.465581,0.196943 -11.005925,-0.475622 -16.397357,0.495772 -5.212531,2.56706 -10.598867,4.894559 -15.261567,8.475536 -3.964937,3.341689 -9.733143,7.292982 -9.24005,13.07905 -0.144661,3.276757 -0.810483,6.501373 -0.547007,9.818195 -0.142577,2.977386 -0.05405,5.917823 1.217685,8.667693 2.080557,4.533598 3.020439,9.329385 5.718095,13.461871 2.825882,4.392304 6.830077,8.382927 12.007622,9.80479 5.539105,1.715084 11.362299,2.138715 17.140914,1.945397 4.720785,0 9.441575,0 14.162355,0 3.65556,-1.21088 6.835535,-5.257154 9.658325,-6.974315 3.52429,-2.929921 4.87441,-7.084654 5.84331,-11.200014 -0.003,-8.195782 0.004,-16.396528 0,-24.588795 -0.88956,-4.392157 -3.69442,-7.91886 -6.1472,-11.49259 -1.51915,-2.719407 -3.78741,-4.883114 -6.093175,-7.162249 -0.64258,-0.947845 -1.60561,-1.485281 -2.72672,-1.657644 z"
       id="path6395"
       inkscape:connector-curvature="0" />
    <path
       style="fill:none;stroke:#873d48;stroke-width:8.46500015;stroke-linecap:round;stroke-linejoin:miter;stroke-miterlimit:4;stroke-dasharray:none;stroke-opacity:1"
       d="m 79.631931,101.84739 c 1.077081,4.13213 -0.396494,4.97743 -0.26759,9.20185 0.104806,3.43467 0.913109,6.996 3.23e-4,10.30882 -1.089292,3.95343 -1.460654,8.12348 -2.201321,12.27034 -0.639537,3.58065 -0.02359,7.4388 -1.401997,10.86542 -1.310415,3.25759 -0.716582,6.84563 -1.232767,10.33453 -0.653294,4.41563 -0.860568,8.79522 -1.016242,13.33224 -0.214885,6.26269 -2.022881,16.56231 -1.609678,22.72191"
       id="path6398"
       inkscape:connector-curvature="0"
       sodipodi:nodetypes="cssssssc" />
    <path
       style="fill:none;stroke:#873d48;stroke-width:4.46500015;stroke-linecap:round;stroke-linejoin:miter;stroke-miterlimit:4;stroke-dasharray:none;stroke-opacity:1"
       d="m 71.881119,191.38267 c -5.068897,3.4683 -7.249265,10.27235 -12.234643,14.3728 -2.748584,3.72594 -3.846411,8.07579 -4.336071,12.79083 -0.455677,5.41855 -1.756831,10.51115 -2.917377,15.95623 -1.706619,5.01754 -0.738826,10.96578 -2.466501,16.0651 -0.630239,5.15172 -1.309391,10.72186 -2.634206,15.65052 -1.392494,3.1586 -2.329057,6.62012 -2.138156,10.15624"
       id="path6404"
       inkscape:connector-curvature="0" />
    <path
       style="fill:none;stroke:#873d48;stroke-width:4.46500015;stroke-linecap:round;stroke-linejoin:miter;stroke-miterlimit:4;stroke-dasharray:none;stroke-opacity:1"
       d="m 71.881119,191.38267 c 5.319423,-1.0246 6.678958,4.51866 7.416771,7.20406 1.589166,5.78404 4.738565,10.51358 6.681695,16.18202 2.11264,6.16292 0.83853,12.46827 4.10174,18.05813 2.98118,5.10674 6.63522,12.9333 9.67291,15.93555 1.769885,1.74923 4.334345,9.07041 5.268305,13.71394 1.30318,6.47923 9.32054,13.83957 8.41899,17.77341"
       id="path6406"
       inkscape:connector-curvature="0"
       sodipodi:nodetypes="csssssc" />
    <path
       style="fill:none;stroke:#873d48;stroke-width:4.46500015;stroke-linecap:butt;stroke-linejoin:miter;stroke-miterlimit:4;stroke-dasharray:none;stroke-opacity:1"
       d="m 78.830122,98.372887 c 5.203013,5.490323 11.106843,10.441633 15.686803,16.418033 6.790055,4.46701 12.240755,11.26101 20.127315,14.05069 3.10884,0.6806 7.2007,2.79089 7.2007,2.79089 6.06529,1.7498 9.97901,3.43881 13.64632,8.43443 -0.68282,4.95216 -11.03158,4.22703 -11.88953,5.58547 -6.43903,2.04704 -13.05659,4.0991 -19.84167,5.46028 -5.576355,0.75555 -10.974725,2.15299 -16.663435,1.78319 -5.086237,0.0129 -5.777929,-1.09699 -10.596238,0.44218 -1.278403,2.63141 -0.03288,2.5229 -1.278403,2.63141"
       id="path6410"
       inkscape:connector-curvature="0"
       sodipodi:nodetypes="cccccccccc" />
    <path
       style="fill:none;stroke:#873d48;stroke-width:2.46499991;stroke-linecap:butt;stroke-linejoin:miter;stroke-miterlimit:4;stroke-dasharray:none;stroke-opacity:1"
       d="m 52.771344,62.826037 c 1.84317,0.44677 3.720641,1.11451 5.614226,1.565812 1.825317,0.588409 3.672144,1.18135 5.611095,1.106882 0.542788,0.04601 1.779367,0.331464 0.479195,0.275096 1.649633,0.308786 3.387562,-0.06643 4.999831,0.259444 0.513392,0.188042 1.024052,0.162299 1.336347,0.534538"
       id="path6418"
       inkscape:connector-curvature="0" />
    <path
       style="fill:none;stroke:#873d48;stroke-width:2.46499991;stroke-linecap:butt;stroke-linejoin:miter;stroke-miterlimit:4;stroke-dasharray:none;stroke-opacity:1"
       d="m 59.185813,65.498731 c 9.12e-4,1.2027 -0.0013,2.405678 0,3.608139 0.644922,0.997469 1.56786,1.936937 2.939965,1.737251 1.199272,0.312377 1.619816,-0.784013 2.008115,-1.601531 0.280668,-1.146299 0.35458,-2.591077 0.530946,-3.610223 -1.59092,-0.153159 -3.113966,-0.453208 -4.677217,-0.668174 -0.317785,-0.388971 -1.596969,-0.05604 -0.801809,0.534538 z"
       id="path6420"
       inkscape:connector-curvature="0" />
    <path
       style="fill:none;stroke:#873d48;stroke-width:2.46499991;stroke-linecap:butt;stroke-linejoin:miter;stroke-miterlimit:4;stroke-dasharray:none;stroke-opacity:1"
       d="m 77.360142,66.567809 c 1.805618,-0.253893 3.621832,0.327991 5.456593,0.267271 2.50199,0 5.00399,0 7.50598,0 0.95591,0.556326 2.17228,0.376328 3.25112,0.534538 0.87609,0.241265 1.83872,0.09368 2.76244,0.133636"
       id="path6422"
       inkscape:connector-curvature="0" />
    <path
       style="fill:none;stroke:#873d48;stroke-width:2.46499991;stroke-linecap:butt;stroke-linejoin:miter;stroke-miterlimit:4;stroke-dasharray:none;stroke-opacity:1"
       d="m 82.571897,66.567809 c 0,0.712719 0,1.425437 0,2.138156 0.461708,1.331865 0.326548,2.924724 1.803668,3.82159 0.73274,0.385919 1.49494,0.684436 2.42679,0.588358 1.00916,0.21894 1.68863,-0.513888 2.31765,-1.202713 1.06323,-1.072445 0.87073,-1.873777 1.33634,-3.073599 0.24444,-0.699167 0.0756,-1.647034 0.26727,-2.138156"
       id="path6424"
       inkscape:connector-curvature="0" />
    <path
       sodipodi:nodetypes="csssccc"
       style="fill:none;stroke:#873d48;stroke-width:2.46499991;stroke-linecap:round;stroke-linejoin:miter;stroke-miterlimit:4;stroke-dasharray:none;stroke-opacity:1"
       d="m 82.972805,88.48391 c -1.161368,-0.936598 -2.468539,-1.897477 -4.042871,-2.063979 -0.08096,-0.0086 0.0077,-0.104204 -2.103348,-0.207813 -1.337853,-0.06566 -2.732864,-0.252024 -4.010586,0.149221 -0.503289,0.158048 -0.322799,-0.222189 -3.457365,0.767376 m 0,0 -1.606403,1.417415"
       id="path6426"
       inkscape:connector-curvature="0" />
    <path
       style="fill:none;stroke:#873d48;stroke-width:2.46499991;stroke-linecap:round;stroke-linejoin:miter;stroke-miterlimit:4;stroke-dasharray:none;stroke-opacity:1"
       d="m 55.184522,54.24479 c 1.328086,0.449089 2.039954,1.734227 3.496271,2.362343 1.246139,0.809937 2.364454,1.846594 3.685259,2.551348 0.77161,0.800422 1.865153,1.268776 3.118297,1.700885 0.996583,0.348238 1.992237,1.093266 3.023803,1.322906 0.04326,0.39739 0.782769,0.286911 1.039436,0.377968"
       id="path6428"
       inkscape:connector-curvature="0" />
    <path
       style="fill:none;stroke:#873d48;stroke-width:2.46499991;stroke-linecap:round;stroke-linejoin:miter;stroke-miterlimit:4;stroke-dasharray:none;stroke-opacity:1"
       d="m 75.878719,62.560266 c 1.251091,0.337715 2.605681,0.543609 3.023809,0.755942 2.016078,-0.04445 4.062627,0.09984 6.054427,-0.09495 1.25959,-0.61486 2.76474,-1.040489 4.05645,-1.605946 1.22004,-0.736866 2.17333,-1.134755 3.30731,-2.17336 0.61134,-0.227319 1.49844,-1.164287 2.26788,-1.700886"
       id="path6430"
       inkscape:connector-curvature="0" />
    <path
       style="fill:none;stroke:#873d48;stroke-width:0.465;stroke-linecap:round;stroke-linejoin:miter;stroke-opacity:1;stroke-miterlimit:4;stroke-dasharray:none"
       d="m 68.224701,70.119789 c -0.754615,1.701834 -1.00569,3.931525 -2.834817,4.819194 -0.49972,0.346493 -0.963511,0.616399 -1.322913,1.133924"
       id="path826"
       inkscape:connector-curvature="0" />
    <path
       style="fill:none;stroke:#873d48;stroke-width:0.465;stroke-linecap:round;stroke-linejoin:miter;stroke-opacity:1;stroke-miterlimit:4;stroke-dasharray:none"
       d="m 78.052082,69.930803 c -0.0261,1.147245 0.199374,2.223779 0.661449,3.212796 0.325359,1.197502 1.373411,2.54514 1.79538,3.212786 0.611221,0.81235 1.400074,1.623153 2.267862,2.07888"
       id="path828"
       inkscape:connector-curvature="0" />
    <path
       style="fill:none;stroke:#873d48;stroke-width:0.465;stroke-linecap:round;stroke-linejoin:miter;stroke-opacity:1;stroke-miterlimit:4;stroke-dasharray:none"
       d="m 64.066964,73.143601 c -1.1531,0.648422 -2.650325,1.126407 -3.617076,1.711562 l -0.162686,0.08382"
       id="path830"
       inkscape:connector-curvature="0" />
    <path
       style="fill:none;stroke:#873d48;stroke-width:0.465;stroke-linecap:round;stroke-linejoin:miter;stroke-opacity:1;stroke-miterlimit:4;stroke-dasharray:none"
       d="m 82.398808,74.466518 c -0.320825,2.481048 2.950674,2.781923 4.591901,3.618926 0.135585,0.324011 0.528507,0.0086 0.699763,0.255324"
       id="path832"
       inkscape:connector-curvature="0" />
    <path
       style="fill:none;stroke:#873d48;stroke-width:0.465;stroke-linecap:round;stroke-linejoin:miter;stroke-opacity:1;stroke-miterlimit:4;stroke-dasharray:none"
       d="m 85.422617,84.955355 c 0.819349,1.214215 2.068373,2.371391 2.267848,3.779759 -0.578399,1.291257 -2.151333,2.017662 -2.74032,3.307292"
       id="path834"
       inkscape:connector-curvature="0" />
    <path
       style="fill:none;stroke:#873d48;stroke-width:0.465;stroke-linecap:round;stroke-linejoin:miter;stroke-opacity:1;stroke-miterlimit:4;stroke-dasharray:none"
       d="m 74.555801,56.323661 c -0.678002,1.797377 -1.282522,3.733409 -1.606393,5.669642 0.344956,1.194203 0.983416,2.433532 1.511898,3.212803 0.115941,0.328678 0.153736,0.677455 0.18899,1.039421"
       id="path866"
       inkscape:connector-curvature="0" />
    <path
       style="fill:none;stroke:#873d48;stroke-width:0.465;stroke-linecap:round;stroke-linejoin:miter;stroke-opacity:1;stroke-miterlimit:4;stroke-dasharray:none"
       d="m 70.398065,55.37872 c 0.373239,1.38139 1.301221,2.58137 1.228424,4.063241"
       id="path868"
       inkscape:connector-curvature="0" />
    <path
       style="fill:none;stroke:#873d48;stroke-width:0.465;stroke-linecap:round;stroke-linejoin:miter;stroke-opacity:1;stroke-miterlimit:4;stroke-dasharray:none"
       d="m 98.622455,77.438082 c -1.294716,1.311064 -2.441045,2.69544 -2.672697,4.543581 0,0.26727 0,0.53454 0,0.80181"
       id="path878"
       inkscape:connector-curvature="0" />
    <path
       style="fill:none;stroke:#873d48;stroke-width:0.465;stroke-linecap:round;stroke-linejoin:miter;stroke-opacity:1;stroke-miterlimit:4;stroke-dasharray:none"
       d="m 54.389347,76.101735 c 2.340656,-0.38728 3.132698,1.026253 3.207235,2.939963"
       id="path880"
       inkscape:connector-curvature="0" />
    <path
       style="fill:#959595;stroke:none;stroke-width:0.26458332px;stroke-linecap:butt;stroke-linejoin:miter;stroke-opacity:1;fill-opacity:1"
       d="m 80.84903,81.84803 c -1.596743,-0.425473 -2.930453,-1.770226 -4.276312,-1.069078 -0.250817,1.253824 0.528007,2.759494 1.968063,2.539061 0.999436,-0.01676 2.02064,0.06911 2.976425,-0.133636 0.750247,1.104221 2.527179,0.963898 2.945415,2.197405 0.351747,0.93812 1.259661,1.547141 0.796357,2.747081 1.216367,0.919596 1.563723,2.782875 3.362562,3.291916 0.497925,0.939073 -1.919662,0.815923 -2.560753,1.385301 -0.935331,-0.0041 -1.87356,0.0057 -2.80633,0 -0.933624,-0.939488 -2.647303,0.184567 -3.608138,-0.935443 -1.458535,-0.471351 -1.831251,2.104713 -2.704957,-0.09402 -0.610381,-0.756599 -2.585419,-1.606171 -2.430748,0.06632 -0.180073,-0.515461 -1.027994,-0.757889 -1.813304,-0.64047 -0.922711,-0.608286 -0.587964,-2.256643 -1.334532,-0.931069 -0.612237,0.26642 -1.904386,0.423958 -1.872702,1.599242 -1.572182,0.36684 -2.345454,-1.864845 -3.741096,-0.39529 -0.846464,-0.01376 -1.693359,-1.53e-4 -2.539737,-0.0056 -0.647623,-1.023524 -2.670283,-1.856113 -0.668173,-2.672697 0.992198,-0.551548 0.262931,-2.134671 1.603616,-2.672694 -0.244476,-1.411323 1.118054,-1.165909 1.98579,-1.845237 0.440311,-0.807195 0.888661,-0.480632 1.895642,-0.56019 0.984257,0.104953 1.72393,-0.5636 2.533036,-0.801807 0.917496,-0.180249 3.12897,-0.322337 2.405425,-1.737251 -0.405058,-1.125578 -1.865197,-0.51192 -2.80633,-0.668176 -0.549268,-0.607825 -1.698994,-1.003189 -2.405425,-0.400905 -1.20507,0.475176 -2.643043,0.998181 -3.741774,1.469983 -0.88458,0.484122 -2.764303,0.73487 -3.424388,0.694666 -0.03327,1.179853 -2.904015,0.564831 -3.257349,1.844394 -0.805658,-0.0422 -3.399682,-0.04414 -2.271792,1.069079 1.690572,1.094679 0.419565,0.810436 -0.668174,1.469982 -0.799774,0.741287 -2.444369,1.756293 -2.00452,3.207234 1.555972,0.339842 0.673621,1.976841 2.138156,2.472243 1.250819,0.284457 1.382685,0.91145 0.534538,1.80407 -0.490122,0.829554 -0.40882,1.771923 -0.400902,2.75164 0.03306,1.289662 -0.601935,2.644592 1.069078,2.861021 0.967806,0.860442 1.931801,1.882242 1.737251,3.249712 -0.324711,1.19758 1.011235,1.05863 1.822218,1.0266 1.174108,0.0463 2.381863,-0.11478 3.523173,0.13363 0.94514,1.30541 2.523789,1.6682 3.396049,2.91384 -0.02556,1.42833 2.055364,0.64588 2.963727,0.6943 1.399123,0 2.798245,0 4.197368,0 0.810934,-0.82688 0.868961,-2.00252 2.296045,-1.60361 0.931581,-0.0421 2.462842,-0.16764 2.104065,1.2187 0.08154,0.98026 1.439241,0.33267 2.141809,0.51855 1.087833,-0.14299 1.978708,0.37287 3.043324,0.26727 0.943442,0.0143 1.978915,-0.11501 2.709156,0.4009 1.184238,0.24268 2.10611,-0.34133 2.539061,-1.46998 0.05087,-1.2831 1.477597,-0.87445 2.368965,-0.93544 1.570733,-9.5e-4 3.145782,0.001 4.713677,0 1.29289,-0.6703 0.962963,-1.9591 1.737251,-3.0736 0.603035,-1.83337 2.461267,-0.0472 3.474504,-0.40091 0.81701,-1.09345 -0.548868,-2.867096 0.66818,-3.608135 0.72505,-0.830759 0.77867,-2.284863 0.31524,-3.204852 0.59257,-1.921009 -1.906009,-1.946819 -2.921123,-2.741896 -1.467177,-0.594974 0.304561,-2.176736 3.6e-4,-2.911253 -1.055096,-0.354366 -2.701364,-0.460662 -3.274412,-1.298242 0.02025,-0.906983 -0.10741,-1.827483 0.267269,-2.539061 -0.824802,0.08813 -1.587507,-0.162499 -2.406025,-0.135399 -1.205698,-0.694665 -2.68248,-0.504396 -3.741172,-1.334583 -0.906668,-1.091805 -2.139814,-1.180519 -3.372738,-1.624375 -0.04755,-1.28404 -0.574125,-2.186625 -2.106288,-1.850128 -0.798435,1.742246 -2.101799,-0.244981 -3.073601,0.400904 z"
       id="path929"
       inkscape:connector-curvature="0" />
    <path
       style="fill:#381806;stroke:#873d48;stroke-width:0.965;stroke-linecap:butt;stroke-linejoin:miter;stroke-opacity:1;fill-opacity:1;stroke-miterlimit:4;stroke-dasharray:none"
       d="m 37.986607,264.30506 h 9.827382 c 2.335463,0 4.711166,0.33927 6.614583,1.51189 2.272812,1.40019 -0.717778,4.64351 -0.708707,6.89807 0.008,1.99119 -0.651484,4.05203 -0.61421,6.14213 0.03339,1.8722 0.285772,3.61599 -0.188989,5.48063 -0.235977,0.92681 -3.80698,2.4963 -5.669642,3.21281 -2.864133,1.10175 -5.548767,2.4622 -8.504465,3.02382 -2.142878,0.40718 -4.314226,0.91862 -6.614584,0.75594 -1.810738,-0.12805 -5.096583,1.34369 -5.669642,-0.37798 -0.728714,-2.18932 -0.61424,-4.46701 -0.944941,-6.61459 -0.343034,-2.22767 -0.455431,-4.11364 2.267858,-3.96875 2.558108,0.1361 5.067736,-0.22614 7.370535,-0.94493 1.515646,-0.47309 0.609143,-2.76316 0.755954,-4.14521 0.245948,-2.31531 -1.170446,-3.42322 -0.944941,-5.972 0.139921,-1.58146 -0.501112,-4.22253 1.538393,-4.28215 0.441706,-0.0129 0.710575,-0.71968 1.485416,-0.71968 z"
       id="path981"
       inkscape:connector-curvature="0"
       sodipodi:nodetypes="sssssssssssssssss" />
    <path
       style="fill:#381806;stroke:#873d48;stroke-width:0.965;stroke-linecap:butt;stroke-linejoin:miter;stroke-opacity:1;fill-opacity:1;stroke-miterlimit:4;stroke-dasharray:none"
       d="m 112.25893,265.06101 c -1.95409,0.69826 -5.08837,0.94022 -7.74851,1.13392 -2.80243,0.20406 -5.168724,1.29849 -3.02381,4.53573 1.71534,2.58889 2.58626,7.07442 3.20518,8.95164 0.43439,1.31754 1.02525,4.39361 1.14154,6.38159 0.10375,1.7736 -0.18943,3.61465 2.07887,3.56556 4.78742,-0.1036 9.62704,-0.42762 14.3631,0.18899 2.02803,0.26404 5.02197,2.83539 6.2366,1.13393 1.61035,-2.25579 0.83567,-5.67299 0,-8.31546 -0.69506,-2.19786 -4.25225,-2.06231 -6.03437,-2.87697 -1.87286,-0.85614 -4.05032,-0.27983 -4.54896,-2.03674 -0.80313,-2.82976 -2.18597,-5.49191 -2.83482,-8.12647 -0.35979,-1.4609 -0.10509,-5.51113 -2.83482,-4.53572 z"
       id="path983"
       inkscape:connector-curvature="0"
       sodipodi:nodetypes="sssssssssssss" />
    <path
       style="fill:#959595;stroke:none;stroke-width:0.265;stroke-linecap:butt;stroke-linejoin:miter;stroke-opacity:1;fill-opacity:1;stroke-miterlimit:4;stroke-dasharray:none"
       d="m 68.980655,42.05506 c -2.851573,0.08929 -5.88098,-0.409533 -8.504465,0.944941 -3.138079,0.953704 3.435557,5.368612 -0.377976,6.80357 -2.907961,1.191634 -5.886232,1.88605 -8.315475,3.779763 -1.728315,1.433996 -5.977757,0.741626 -5.858632,3.63753 0.469292,3.15325 -3.454226,4.904755 -5.62954,2.799773 -1.009732,-1.175995 -3.718712,0.478767 -4.197842,-0.95665 0.756416,-2.79542 2.252796,-5.038318 2.612368,-7.889163 0.691334,-1.645633 2.723179,-5.25074 0.222455,-6.095955 -2.256792,-0.555468 -3.580975,-2.148693 -3.023809,-4.535715 1.740495,-2.382445 -2.547249,-1.565794 -0.566965,-4.157736 -0.126664,-2.50194 2.513461,-3.944264 4.740289,-3.96875 3.104325,-0.06555 6.12938,0.568182 9.244829,0.377975 3.060895,-1.054735 4.402052,-4.053373 5.050807,-6.904993 -0.31734,-2.180912 0.473192,-3.760786 2.697705,-4.245305 1.645494,-1.205654 3.972633,-1.193196 6.027801,-0.636247 -0.01117,0.242185 3.92426,0.704271 5.60957,0.636247 2.055551,0.231023 3.380759,-1.402067 5.465072,-0.94494 1.370482,6.83e-4 3.442993,-0.429184 3.119284,1.700892 0.04084,2.205771 1.60889,3.070925 3.715457,2.645834 2.504834,0.07175 4.996638,-0.09928 7.059722,-1.600046 1.593194,-0.554857 3.466956,-0.960284 5.586895,-0.8568 2.453636,-0.441967 4.032579,0.623803 5.207011,2.797083 2.460874,1.502576 5.329074,1.914045 7.913054,2.87256 2.20987,-0.238104 2.66636,2.136922 2.07887,3.96875 -0.4869,3.247655 3.73636,4.073728 4.91369,6.803573 1.73193,2.065776 0.40901,5.265979 2.43792,7.337631 1.20247,2.713611 4.64645,4.413176 4.55464,7.419026 0.0311,2.246461 -0.49414,4.926818 2.07887,6.032031 3.51338,-0.329392 1.95077,4.247161 -0.59814,3.96875 -2.14117,0.136811 -4.60322,-0.227204 -6.39442,0.944941 -0.27239,1.104374 0.66652,3.854331 -0.75595,3.590774 -3.18154,-1.034819 -5.8168,-3.607724 -9.07143,-4.346726 -2.86716,-1.913553 -4.33508,-5.662303 -4.15774,-9.071427 0.2986,-3.749443 -3.842431,-4.069301 -6.614581,-4.724705 -2.656724,0.594142 -2.054291,-1.690838 -2.078868,-3.368652 0.562737,-3.315836 -2.935131,-3.511203 -5.10268,-4.001882 -1.584929,0.0703 -3.427214,-0.276754 -4.724702,0.566965 1.53024,1.711726 2.452745,3.819526 1.700892,6.236607 -0.610736,1.925015 1.958311,3.868939 -1.022868,3.212796 -1.703552,0.229083 -1.170408,-1.865211 -1.244989,-2.943919 0.331306,-2.286903 -0.177303,-4.380926 -3.070565,-3.670665 -2.129135,-0.82454 -2.899579,1.797204 -4.677946,1.133931 -1.873563,-1.560765 -2.63986,-3.666356 -3.779763,-5.669643 -1.285021,-0.558744 -2.752108,0.973114 -3.590772,0"
       id="path987"
       inkscape:connector-curvature="0" />
  </g>
  <g
     inkscape:groupmode="layer"
     id="layer2"
     inkscape:label="Layer 2">
    <path
       style="display:inline;fill:none;stroke:#873d48;stroke-width:4.46500015;stroke-linecap:butt;stroke-linejoin:miter;stroke-miterlimit:4;stroke-dasharray:none;stroke-opacity:1"
       d="m 77.226506,113.33997 c -2.948481,6.09431 -11.104411,7.00168 -16.570711,10.15625 -5.289547,2.09317 -9.262984,7.11473 -14.515717,7.62328 -3.187541,1.35798 -7.366593,0.97893 -10.996441,0.7288 2.027174,-3.15936 5.963655,-5.93496 8.264147,-9.2784 3.958562,-4.34842 9.517116,-6.37389 13.506239,-10.83354 2.871823,-3.92439 5.86928,-8.45463 6.949006,-13.363476 2.197147,-4.080882 7.746978,-15.485707 -0.61201,-15.532106 -6.185203,1.750356 -0.870282,9.280935 2.215629,11.255794"
       id="path6408"
       inkscape:connector-curvature="0" />
    <path
       style="fill:#cacaca;fill-opacity:1;stroke:#873d48;stroke-width:1.165;stroke-linecap:butt;stroke-linejoin:miter;stroke-opacity:1;stroke-miterlimit:4;stroke-dasharray:none"
       d="m 67.084651,111.38131 c -1.742398,2.10119 -5.594931,2.97666 -8.018087,4.40995 -1.517293,0.43453 -2.525524,1.71202 -4.009043,2.00452 -1.380184,0.5662 -3.4653,0.97446 -3.608139,2.80633 -0.310947,1.75677 -1.107129,3.26532 -1.202711,5.01991 v 4.20089 c 0.797803,1.01377 -0.0853,2.69396 1.202711,3.4745 2.188101,0.21756 4.275187,-0.3848 6.280835,-1.06908 1.142103,-0.23363 4.121369,-2.261 2.323727,0.19126 -0.989056,2.04499 -2.341364,4.00306 -2.587733,6.35241 -0.869018,2.34741 -1.207389,4.86985 -1.740514,7.22072 0.0602,1.99351 -0.729397,3.74529 -0.53454,5.74629 -0.0275,2.04337 -0.0339,4.14981 -0.668174,6.01356 0.08142,2.60552 -0.578537,5.07688 -0.400904,7.7098 0.01137,1.20813 0.07187,2.42785 -0.267269,3.55323 -0.658065,2.28595 1.480576,2.62025 2.657531,3.82951 -0.118449,1.79922 2.252826,-0.58344 3.965988,0.14183 3.520208,-0.0636 7.100769,0.13333 10.578735,-0.11187 1.798453,-0.5031 3.725808,-0.7436 5.645979,-0.68994 2.665801,-0.0706 5.436527,0.14734 8.030819,-0.1199 0.426553,-1.30921 0.46045,-2.83776 0.92602,-4.15641 0.440226,-1.69292 1.123931,-3.31402 2.405425,-4.67722 1.024945,-1.13276 1.174545,-2.51282 1.33635,-4.00904 0.05254,-2.01702 0.695411,-3.92931 0.534538,-6.04797 v -20.01081 c -0.102165,-1.12027 -1.124233,-4.75985 0.801809,-2.40543 1.467625,1.34851 3.303671,3.02493 4.276312,0.26727 1.719743,-2.0119 3.496303,-4.00371 5.211754,-6.01356 1.25782,-1.89075 3.10247,-3.3319 4.54358,-5.07812 1.59632,-1.16945 1.35615,-2.58528 -0.80181,-3.20724 -1.61497,-1.3018 -2.92117,-1.94997 -4.543576,-3.60814 -0.830487,-1.40102 -2.763636,-1.78297 -3.882128,-2.96683"
       id="path942"
       inkscape:connector-curvature="0"
       sodipodi:nodetypes="cccccccccccccccccccccccccccccccc" />
    <path
       style="fill:#cacaca;fill-opacity:1;stroke:#873d48;stroke-width:1.165;stroke-linecap:butt;stroke-linejoin:miter;stroke-opacity:1;stroke-miterlimit:4;stroke-dasharray:none"
       d="m 73.365481,107.77319 c -1.506241,1.0436 -1.83047,2.28648 0.133638,2.67268 1.233496,0.5698 2.001737,0.86941 3.347586,0.10121 1.755673,-0.61976 3.730578,-0.69552 5.071403,-1.57119 1.5997,-0.41531 3.028923,-1.0517 4.677217,-1.60362 1.173565,-0.7926 2.68584,-1.32968 3.608138,-2.00452 1.834521,-0.9638 2.920751,1.75772 4.677217,2.13815 1.846713,0.65939 2.649613,2.27285 0.400905,3.20724 -1.772798,1.23526 -2.852187,3.31526 -4.81085,4.27631 -0.837406,0.74243 -1.380118,2.07916 -2.609819,1.87089 -1.476819,0.13338 -3.0063,-0.61462 -4.177621,-0.91733 -1.976555,-0.46396 -3.847747,-1.23159 -5.506959,-2.15627 -1.467221,-1.78616 -2.286556,1.86933 -4.009043,2.13815 -1.379677,0.38943 -3.596726,1.54534 -4.677217,0.40091 -0.171971,-1.9582 -2.666717,-3.02124 -2.405425,-4.94449 1.696974,-1.25608 2.379861,-2.65566 3.875407,-3.87541 0.361095,-0.76263 3.193851,-1.26893 2.405423,0.26729 z"
       id="path938"
       inkscape:connector-curvature="0"
       sodipodi:nodetypes="ccccccccccccccccc" />
    <path
       style="fill:#5b270a;fill-opacity:1;stroke:#873d48;stroke-width:1.66499996;stroke-linecap:butt;stroke-linejoin:miter;stroke-miterlimit:4;stroke-dasharray:none;stroke-opacity:1"
       d="m 56.512341,172.84511 c -2.77109,3.97953 -0.814969,7.03515 -3.442117,9.83278 -0.703289,4.97574 -1.491391,10.01666 -2.968895,14.87641 -1.820165,3.93154 -0.891306,8.43762 -2.475296,12.44749 -0.795907,6.08587 -3.191602,11.75557 -5.042363,17.56535 -1.536363,4.33128 -2.335598,8.88324 -3.955143,13.23415 -2.086345,5.81398 -1.547636,11.97432 -1.586865,18.02311 3.66007,0.83499 7.541981,0.17197 11.295728,0.36728 3.700539,-0.54383 6.694463,2.51362 10.41993,2.28536 3.343598,-2.61938 -0.118742,-9.26826 1.815823,-13.19399 1.622458,-4.86415 0.320999,-10.12477 2.010343,-14.98682 0.215185,-4.36209 2.223226,-8.09825 3.735169,-11.98094 1.768851,-4.26528 0.80541,-9.17585 2.335115,-13.57811 0.09446,-4.108 2.831627,-1.5151 2.174318,1.14633 0.349563,4.50773 1.578752,8.8616 2.35972,13.27556 2.000882,4.01621 1.171644,8.67802 3.227261,12.65213 2.396031,3.95665 2.75442,8.56113 4.241701,12.87146 0.98309,4.34918 2.175815,8.65985 2.713399,13.13428 -0.303948,5.7604 6.025755,2.55427 9.218073,2.27815 3.365989,-1.58505 7.069719,-1.49346 10.515218,-2.71793 3.16089,-0.59123 10.15974,-2.32678 6.74204,-6.43462 -1.10575,-6.30912 -4.28712,-11.95064 -5.71249,-18.16353 -0.54736,-3.77529 -2.11343,-7.40177 -3.11936,-11.04453 -1.179235,-3.2946 -1.477738,-6.84269 -3.400718,-9.86958 -3.511045,-6.5276 -7.426607,-12.95848 -9.38846,-20.16457 -0.891947,-4.4365 -3.901811,-8.31658 -5.235983,-12.7189 -0.341689,-3.86214 -1.366704,-7.42281 -1.284211,-11.17348 -1.850431,-3.49666 -7.742244,-2.49291 -11.430107,-2.69834 -3.370831,-0.34069 -6.60067,0.39529 -9.700115,1.70362 -1.275644,1.19651 -3.55701,-1.20212 -4.061715,3.03188 z"
       id="path969"
       inkscape:connector-curvature="0"
       sodipodi:nodetypes="cccccccccccccccccccccccccccccc" />
  </g>
</svg>
