<?xml version="1.0" encoding="UTF-8" standalone="no"?>
<!-- Created with Inkscape (http://www.inkscape.org/) -->

<svg
   xmlns:dc="http://purl.org/dc/elements/1.1/"
   xmlns:cc="http://creativecommons.org/ns#"
   xmlns:rdf="http://www.w3.org/1999/02/22-rdf-syntax-ns#"
   xmlns:svg="http://www.w3.org/2000/svg"
   xmlns="http://www.w3.org/2000/svg"
   xmlns:sodipodi="http://sodipodi.sourceforge.net/DTD/sodipodi-0.dtd"
   xmlns:inkscape="http://www.inkscape.org/namespaces/inkscape"
   width="160mm"
   height="297mm"
   viewBox="0 0 160 297"
   version="1.1"
   id="svg2138"
   inkscape:version="0.92.3 (2405546, 2018-03-11)"
   sodipodi:docname="stick-figure1.svg">
  <defs
     id="defs2132" />
  <sodipodi:namedview
     id="base"
     pagecolor="#ffffff"
     bordercolor="#666666"
     borderopacity="1.0"
     inkscape:pageopacity="0.0"
     inkscape:pageshadow="2"
     inkscape:zoom="0.7"
     inkscape:cx="237.30506"
     inkscape:cy="737.57879"
     inkscape:document-units="mm"
     inkscape:current-layer="layer1"
     showgrid="false"
     inkscape:pagecheckerboard="true"
     inkscape:window-width="1290"
     inkscape:window-height="736"
     inkscape:window-x="482"
     inkscape:window-y="131"
     inkscape:window-maximized="0" />
  <metadata
     id="metadata2135">
    <rdf:RDF>
      <cc:Work
         rdf:about="">
        <dc:format>image/svg+xml</dc:format>
        <dc:type
           rdf:resource="http://purl.org/dc/dcmitype/StillImage" />
        <dc:title></dc:title>
      </cc:Work>
    </rdf:RDF>
  </metadata>
  <g
     inkscape:label="Layer 1"
     inkscape:groupmode="layer"
     id="layer1"
     style="display:inline">
    <g
       id="g6452"
       transform="translate(-17.386905,0.75595236)"
       style="stroke:#873d48;stroke-opacity:1">
      <path
         inkscape:connector-curvature="0"
         id="path6395"
         d="m 112.78774,34.541325 c -2.49245,-1.967481 -5.65898,-2.595753 -9.33523,-2.672697 -5.465581,0.196943 -11.005925,-0.475622 -16.397357,0.495772 -5.212531,2.56706 -10.598867,4.894559 -15.261567,8.475536 -3.964937,3.341689 -9.733143,7.292982 -9.24005,13.07905 -0.144661,3.276757 -0.810483,6.501373 -0.547007,9.818195 -0.142577,2.977386 -0.05405,5.917823 1.217685,8.667693 2.080557,4.533598 3.020439,9.329385 5.718095,13.461871 2.825882,4.392304 6.830077,8.382927 12.007622,9.80479 5.539105,1.715084 11.362299,2.138715 17.140914,1.945397 4.720785,0 9.441575,0 14.162355,0 3.65556,-1.21088 6.83553,-5.257154 9.65832,-6.974315 3.52429,-2.929921 4.87441,-7.084654 5.84331,-11.200014 -0.003,-8.195782 0.004,-16.396528 0,-24.588795 -0.88956,-4.392157 -3.69442,-7.91886 -6.1472,-11.49259 -1.51915,-2.719407 -3.78741,-4.883114 -6.09317,-7.162249 -0.64258,-0.947845 -1.60561,-1.485281 -2.72672,-1.657644 z"
         style="fill:none;stroke:#873d48;stroke-width:6.76499987;stroke-linecap:butt;stroke-linejoin:miter;stroke-miterlimit:4;stroke-dasharray:none;stroke-opacity:1" />
      <path
         sodipodi:nodetypes="cssssssc"
         inkscape:connector-curvature="0"
         id="path6398"
         d="m 97.018836,101.09144 c 1.077081,4.13213 -0.396494,4.97743 -0.26759,9.20185 0.104806,3.43467 0.913109,6.996 3.23e-4,10.30882 -1.089292,3.95343 -1.460654,8.12348 -2.201321,12.27034 -0.639537,3.58065 -0.02359,7.4388 -1.401997,10.86542 -1.310415,3.25759 -0.716582,6.84563 -1.232767,10.33453 -0.653294,4.41563 -0.860568,8.79522 -1.016242,13.33224 -0.214885,6.26269 -2.022881,16.56231 -1.609678,22.72191"
         style="fill:none;stroke:#873d48;stroke-width:8.46500015;stroke-linecap:round;stroke-linejoin:miter;stroke-miterlimit:4;stroke-dasharray:none;stroke-opacity:1" />
      <path
         inkscape:connector-curvature="0"
         id="path6404"
         d="m 89.268024,190.62672 c -5.068897,3.4683 -7.249265,10.27235 -12.234643,14.3728 -2.748584,3.72594 -3.846411,8.07579 -4.336071,12.79083 -0.455677,5.41855 -1.756831,10.51115 -2.917377,15.95623 -1.706619,5.01754 -0.738826,10.96578 -2.466501,16.0651 -0.630239,5.15172 -1.309391,10.72186 -2.634206,15.65052 -1.392494,3.1586 -2.329057,6.62012 -2.138156,10.15624"
         style="fill:none;stroke:#873d48;stroke-width:4.46500015;stroke-linecap:round;stroke-linejoin:miter;stroke-miterlimit:4;stroke-dasharray:none;stroke-opacity:1" />
      <path
         sodipodi:nodetypes="csssssc"
         inkscape:connector-curvature="0"
         id="path6406"
         d="m 89.268024,190.62672 c 5.319423,-1.0246 6.678958,4.51866 7.416771,7.20406 1.589166,5.78404 4.738565,10.51358 6.681695,16.18202 2.11264,6.16292 0.83853,12.46827 4.10174,18.05813 2.98118,5.10674 6.63522,12.9333 9.67291,15.93555 1.76988,1.74923 4.33434,9.07041 5.2683,13.71394 1.30318,6.47923 9.32054,13.83957 8.41899,17.77341"
         style="fill:none;stroke:#873d48;stroke-width:4.46500015;stroke-linecap:round;stroke-linejoin:miter;stroke-miterlimit:4;stroke-dasharray:none;stroke-opacity:1" />
      <path
         inkscape:connector-curvature="0"
         id="path6408"
         d="M 94.613411,112.58402 C 91.66493,118.67833 83.509,119.5857 78.0427,122.74027 c -5.289547,2.09317 -9.262984,7.11473 -14.515717,7.62328 -3.187541,1.35798 -7.366593,0.97893 -10.996441,0.7288 2.027174,-3.15936 5.963655,-5.93496 8.264147,-9.2784 3.958562,-4.34842 9.517116,-6.37389 13.506239,-10.83354 2.871823,-3.92439 5.86928,-8.45463 6.949006,-13.363478 2.197147,-4.080882 7.746978,-15.485707 -0.61201,-15.532106 -6.185203,1.750356 -0.870282,9.280935 2.215629,11.255794"
         style="fill:none;stroke:#873d48;stroke-width:4.46500015;stroke-linecap:butt;stroke-linejoin:miter;stroke-miterlimit:4;stroke-dasharray:none;stroke-opacity:1" />
      <path
         sodipodi:nodetypes="cccccccccc"
         inkscape:connector-curvature="0"
         id="path6410"
         d="m 96.217027,97.616935 c 5.203013,5.490325 11.106843,10.441635 15.686803,16.418035 6.79006,4.46701 12.24076,11.26101 20.12732,14.05069 3.10883,0.6806 7.20069,2.79089 7.20069,2.79089 6.06529,1.7498 9.97902,3.43881 13.64633,8.43443 -0.68282,4.95216 -11.03159,4.22703 -11.88954,5.58547 -6.43903,2.04704 -13.05659,4.0991 -19.84167,5.46028 -5.57635,0.75555 -10.97472,2.15299 -16.66343,1.78319 -5.086237,0.0129 -5.777929,-1.09699 -10.596238,0.44218 -1.278403,2.63141 -0.03288,2.5229 -1.278403,2.63141"
         style="fill:none;stroke:#873d48;stroke-width:4.46500015;stroke-linecap:butt;stroke-linejoin:miter;stroke-miterlimit:4;stroke-dasharray:none;stroke-opacity:1" />
      <path
         inkscape:connector-curvature="0"
         id="path6418"
         d="m 70.158249,62.070085 c 1.84317,0.44677 3.720641,1.11451 5.614226,1.565812 1.825317,0.588409 3.672144,1.18135 5.611095,1.106882 0.542788,0.04601 1.779367,0.331464 0.479195,0.275096 1.649633,0.308786 3.387562,-0.06643 4.999831,0.259444 0.513392,0.188042 1.024052,0.162299 1.336347,0.534538"
         style="fill:none;stroke:#873d48;stroke-width:2.46499991;stroke-linecap:butt;stroke-linejoin:miter;stroke-miterlimit:4;stroke-dasharray:none;stroke-opacity:1" />
      <path
         inkscape:connector-curvature="0"
         id="path6420"
         d="m 76.572718,64.742779 c 9.12e-4,1.2027 -0.0013,2.405678 0,3.608139 0.644922,0.997469 1.56786,1.936937 2.939965,1.737251 1.199272,0.312377 1.619816,-0.784013 2.008115,-1.601531 0.280668,-1.146299 0.35458,-2.591077 0.530946,-3.610223 -1.59092,-0.153159 -3.113966,-0.453208 -4.677217,-0.668174 -0.317785,-0.388971 -1.596969,-0.05604 -0.801809,0.534538 z"
         style="fill:none;stroke:#873d48;stroke-width:2.46499991;stroke-linecap:butt;stroke-linejoin:miter;stroke-miterlimit:4;stroke-dasharray:none;stroke-opacity:1" />
      <path
         inkscape:connector-curvature="0"
         id="path6422"
         d="m 94.747047,65.811857 c 1.805618,-0.253893 3.621832,0.327991 5.456593,0.267271 2.50199,0 5.00399,0 7.50598,0 0.95591,0.556326 2.17228,0.376328 3.25112,0.534538 0.87609,0.241265 1.83872,0.09368 2.76244,0.133636"
         style="fill:none;stroke:#873d48;stroke-width:2.46499991;stroke-linecap:butt;stroke-linejoin:miter;stroke-miterlimit:4;stroke-dasharray:none;stroke-opacity:1" />
      <path
         inkscape:connector-curvature="0"
         id="path6424"
         d="m 99.958802,65.811857 c 0,0.712719 0,1.425437 0,2.138156 0.461708,1.331865 0.326548,2.924724 1.803668,3.82159 0.73274,0.385919 1.49494,0.684436 2.42679,0.588358 1.00916,0.21894 1.68863,-0.513888 2.31765,-1.202713 1.06323,-1.072445 0.87073,-1.873777 1.33634,-3.073599 0.24444,-0.699167 0.0756,-1.647034 0.26727,-2.138156"
         style="fill:none;stroke:#873d48;stroke-width:2.46499991;stroke-linecap:butt;stroke-linejoin:miter;stroke-miterlimit:4;stroke-dasharray:none;stroke-opacity:1" />
      <path
         inkscape:connector-curvature="0"
         id="path6426"
         d="m 100.35971,87.727958 c -1.161368,-0.936598 -2.468539,-1.897477 -4.042871,-2.063979 -0.08096,-0.0086 0.0077,-0.104204 -2.103348,-0.207813 -1.337853,-0.06566 -2.732864,-0.252024 -4.010586,0.149221 -0.503289,0.158048 -0.322799,-0.222189 -3.457365,0.767376 m 0,0 -1.606403,1.417415"
         style="fill:none;stroke:#873d48;stroke-width:2.46499991;stroke-linecap:round;stroke-linejoin:miter;stroke-miterlimit:4;stroke-dasharray:none;stroke-opacity:1"
         sodipodi:nodetypes="csssccc" />
      <path
         inkscape:connector-curvature="0"
         id="path6428"
         d="m 72.571427,53.488838 c 1.328086,0.449089 2.039954,1.734227 3.496271,2.362343 1.246139,0.809937 2.364454,1.846594 3.685259,2.551348 0.77161,0.800422 1.865153,1.268776 3.118297,1.700885 0.996583,0.348238 1.992237,1.093266 3.023803,1.322906 0.04326,0.39739 0.782769,0.286911 1.039436,0.377968"
         style="fill:none;stroke:#873d48;stroke-width:2.46499991;stroke-linecap:round;stroke-linejoin:miter;stroke-miterlimit:4;stroke-dasharray:none;stroke-opacity:1" />
      <path
         inkscape:connector-curvature="0"
         id="path6430"
         d="m 93.265624,61.804314 c 1.251091,0.337715 2.605681,0.543609 3.023809,0.755942 2.016078,-0.04445 4.062627,0.09984 6.054427,-0.09495 1.25959,-0.61486 2.76474,-1.040489 4.05645,-1.605946 1.22004,-0.736866 2.17333,-1.134755 3.30731,-2.17336 0.61134,-0.227319 1.49844,-1.164287 2.26788,-1.700886"
         style="fill:none;stroke:#873d48;stroke-width:2.46499991;stroke-linecap:round;stroke-linejoin:miter;stroke-miterlimit:4;stroke-dasharray:none;stroke-opacity:1" />
    </g>
    <path
       style="fill:none;stroke:#873d48;stroke-width:0.465;stroke-linecap:round;stroke-linejoin:miter;stroke-opacity:1;stroke-miterlimit:4;stroke-dasharray:none"
       d="m 68.224701,70.119789 c -0.754615,1.701834 -1.00569,3.931525 -2.834817,4.819194 -0.49972,0.346493 -0.963511,0.616399 -1.322913,1.133924"
       id="path826"
       inkscape:connector-curvature="0" />
    <path
       style="fill:none;stroke:#873d48;stroke-width:0.465;stroke-linecap:round;stroke-linejoin:miter;stroke-opacity:1;stroke-miterlimit:4;stroke-dasharray:none"
       d="m 78.052082,69.930803 c -0.0261,1.147245 0.199374,2.223779 0.661449,3.212796 0.325359,1.197502 1.373411,2.54514 1.79538,3.212786 0.611221,0.81235 1.400074,1.623153 2.267862,2.07888"
       id="path828"
       inkscape:connector-curvature="0" />
    <path
       style="fill:none;stroke:#873d48;stroke-width:0.465;stroke-linecap:round;stroke-linejoin:miter;stroke-opacity:1;stroke-miterlimit:4;stroke-dasharray:none"
       d="m 64.066964,73.143601 c -1.1531,0.648422 -2.650325,1.126407 -3.617076,1.711562 l -0.162686,0.08382"
       id="path830"
       inkscape:connector-curvature="0" />
    <path
       style="fill:none;stroke:#873d48;stroke-width:0.465;stroke-linecap:round;stroke-linejoin:miter;stroke-opacity:1;stroke-miterlimit:4;stroke-dasharray:none"
       d="m 82.398808,74.466518 c -0.320825,2.481048 2.950674,2.781923 4.591901,3.618926 0.135585,0.324011 0.528507,0.0086 0.699763,0.255324"
       id="path832"
       inkscape:connector-curvature="0" />
    <path
       style="fill:none;stroke:#873d48;stroke-width:0.465;stroke-linecap:round;stroke-linejoin:miter;stroke-opacity:1;stroke-miterlimit:4;stroke-dasharray:none"
       d="m 85.422617,84.955355 c 0.819349,1.214215 2.068373,2.371391 2.267848,3.779759 -0.578399,1.291257 -2.151333,2.017662 -2.74032,3.307292"
       id="path834"
       inkscape:connector-curvature="0" />
    <path
       style="fill:none;stroke:#873d48;stroke-width:0.465;stroke-linecap:round;stroke-linejoin:miter;stroke-opacity:1;stroke-miterlimit:4;stroke-dasharray:none"
       d="m 73.421874,90.813987 c 0.169912,1.282514 0.672258,2.532424 0.566966,3.885472 0.065,0.480178 -0.128076,1.08862 0.09449,1.500681"
       id="path850"
       inkscape:connector-curvature="0" />
    <path
       style="fill:none;stroke:#873d48;stroke-width:0.465;stroke-linecap:round;stroke-linejoin:miter;stroke-opacity:1;stroke-miterlimit:4;stroke-dasharray:none"
       d="m 76.067707,90.436011 c 0.168008,1.012125 0.373818,2.020512 0.283483,3.087882 0.04906,0.9606 -0.134693,2.021601 0.18898,2.865241 l -0.04725,-0.02362 -0.04725,-0.07087"
       id="path852"
       inkscape:connector-curvature="0" />
    <path
       style="fill:none;stroke:#873d48;stroke-width:0.465;stroke-linecap:round;stroke-linejoin:miter;stroke-opacity:1;stroke-miterlimit:4;stroke-dasharray:none"
       d="m 77.674107,91.475445 c 0.51768,1.449703 0.650024,2.885321 1.133914,4.25223 v 0.377975"
       id="path854"
       inkscape:connector-curvature="0" />
    <path
       style="fill:none;stroke:#873d48;stroke-width:2.265;stroke-linecap:round;stroke-linejoin:miter;stroke-opacity:1;stroke-miterlimit:4;stroke-dasharray:none"
       d="m 76.823659,81.175594 c 1.110402,0.900334 2.977518,0.462351 4.157739,1.464649 0.324901,0.145627 0.473991,0.303857 0.661458,0.425228"
       id="path862"
       inkscape:connector-curvature="0" />
    <path
       style="fill:none;stroke:#873d48;stroke-width:2.265;stroke-linecap:round;stroke-linejoin:miter;stroke-opacity:1;stroke-miterlimit:4;stroke-dasharray:none"
       d="m 70.303572,81.459077 c -1.30039,0.398803 -2.297856,0.803123 -3.625714,1.324094 -0.02878,0.345764 -0.318075,0.06312 -0.437531,0.282299"
       id="path864"
       inkscape:connector-curvature="0" />
    <path
       style="fill:none;stroke:#873d48;stroke-width:0.465;stroke-linecap:round;stroke-linejoin:miter;stroke-opacity:1;stroke-miterlimit:4;stroke-dasharray:none"
       d="m 74.555801,56.323661 c -0.678002,1.797377 -1.282522,3.733409 -1.606393,5.669642 0.344956,1.194203 0.983416,2.433532 1.511898,3.212803 0.115941,0.328678 0.153736,0.677455 0.18899,1.039421"
       id="path866"
       inkscape:connector-curvature="0" />
    <path
       style="fill:none;stroke:#873d48;stroke-width:0.465;stroke-linecap:round;stroke-linejoin:miter;stroke-opacity:1;stroke-miterlimit:4;stroke-dasharray:none"
       d="m 70.398065,55.37872 c 0.373239,1.38139 1.301221,2.58137 1.228424,4.063241"
       id="path868"
       inkscape:connector-curvature="0" />
    <path
       style="fill:none;stroke:#873d48;stroke-width:0.465;stroke-linecap:round;stroke-linejoin:miter;stroke-opacity:1;stroke-miterlimit:4;stroke-dasharray:none"
       d="m 80.130951,92.609372 c -0.105527,0.529812 -0.100383,1.065103 -0.0945,1.6064"
       id="path874"
       inkscape:connector-curvature="0" />
    <path
       style="fill:none;stroke:#873d48;stroke-width:0.465;stroke-linecap:round;stroke-linejoin:miter;stroke-opacity:1;stroke-miterlimit:4;stroke-dasharray:none"
       d="m 71.154017,92.751115 c -0.07849,0.488101 -0.02985,0.97936 -0.0945,1.464657"
       id="path876"
       inkscape:connector-curvature="0" />
    <path
       style="fill:none;stroke:#873d48;stroke-width:0.465;stroke-linecap:round;stroke-linejoin:miter;stroke-opacity:1;stroke-miterlimit:4;stroke-dasharray:none"
       d="m 98.622455,77.438082 c -1.294716,1.311064 -2.441045,2.69544 -2.672697,4.543581 0,0.26727 0,0.53454 0,0.80181"
       id="path878"
       inkscape:connector-curvature="0" />
    <path
       style="fill:none;stroke:#873d48;stroke-width:0.465;stroke-linecap:round;stroke-linejoin:miter;stroke-opacity:1;stroke-miterlimit:4;stroke-dasharray:none"
       d="m 54.389347,76.101735 c 2.340656,-0.38728 3.132698,1.026253 3.207235,2.939963"
       id="path880"
       inkscape:connector-curvature="0" />
  </g>
</svg>
